<svg width="8" height="14" viewBox="0 0 8 14" fill="none" xmlns="http://www.w3.org/2000/svg">
<path d="M1.50006 13.3465C1.12988 13.3465 0.812973 13.2147 0.549348 12.9511C0.285736 12.6875 0.153931 12.3706 0.153931 12.0004C0.153931 11.6302 0.285736 11.3133 0.549348 11.0497C0.812973 10.7861 1.12988 10.6543 1.50006 10.6543C1.87024 10.6543 2.18714 10.7861 2.45076 11.0497C2.71438 11.3133 2.84618 11.6302 2.84618 12.0004C2.84618 12.3706 2.71438 12.6875 2.45076 12.9511C2.18714 13.2147 1.87024 13.3465 1.50006 13.3465ZM6.50006 13.3465C6.12988 13.3465 5.81297 13.2147 5.54935 12.9511C5.28574 12.6875 5.15393 12.3706 5.15393 12.0004C5.15393 11.6302 5.28574 11.3133 5.54935 11.0497C5.81297 10.7861 6.12988 10.6543 6.50006 10.6543C6.87024 10.6543 7.18714 10.7861 7.45076 11.0497C7.71438 11.3133 7.84618 11.6302 7.84618 12.0004C7.84618 12.3706 7.71438 12.6875 7.45076 12.9511C7.18714 13.2147 6.87024 13.3465 6.50006 13.3465ZM1.50006 8.34655C1.12988 8.34655 0.812973 8.21474 0.549348 7.95113C0.285736 7.68751 0.153931 7.3706 0.153931 7.00042C0.153931 6.63024 0.285736 6.31334 0.549348 6.04971C0.812973 5.7861 1.12988 5.6543 1.50006 5.6543C1.87024 5.6543 2.18714 5.7861 2.45076 6.04971C2.71438 6.31334 2.84618 6.63024 2.84618 7.00042C2.84618 7.3706 2.71438 7.68751 2.45076 7.95113C2.18714 8.21474 1.87024 8.34655 1.50006 8.34655ZM6.50006 8.34655C6.12988 8.34655 5.81297 8.21474 5.54935 7.95113C5.28574 7.68751 5.15393 7.3706 5.15393 7.00042C5.15393 6.63024 5.28574 6.31334 5.54935 6.04971C5.81297 5.7861 6.12988 5.6543 6.50006 5.6543C6.87024 5.6543 7.18714 5.7861 7.45076 6.04971C7.71438 6.31334 7.84618 6.63024 7.84618 7.00042C7.84618 7.3706 7.71438 7.68751 7.45076 7.95113C7.18714 8.21474 6.87024 8.34655 6.50006 8.34655ZM1.50006 3.34655C1.12988 3.34655 0.812973 3.21474 0.549348 2.95113C0.285736 2.6875 0.153931 2.3706 0.153931 2.00042C0.153931 1.63024 0.285736 1.31334 0.549348 1.04971C0.812973 0.786103 1.12988 0.654297 1.50006 0.654297C1.87024 0.654297 2.18714 0.786103 2.45076 1.04971C2.71438 1.31334 2.84618 1.63024 2.84618 2.00042C2.84618 2.3706 2.71438 2.6875 2.45076 2.95113C2.18714 3.21474 1.87024 3.34655 1.50006 3.34655ZM6.50006 3.34655C6.12988 3.34655 5.81297 3.21474 5.54935 2.95113C5.28574 2.6875 5.15393 2.3706 5.15393 2.00042C5.15393 1.63024 5.28574 1.31334 5.54935 1.04971C5.81297 0.786103 6.12988 0.654297 6.50006 0.654297C6.87024 0.654297 7.18714 0.786103 7.45076 1.04971C7.71438 1.31334 7.84618 1.63024 7.84618 2.00042C7.84618 2.3706 7.71438 2.6875 7.45076 2.95113C7.18714 3.21474 6.87024 3.34655 6.50006 3.34655Z" fill="currentColor"/>
</svg>
