<svg width="16" height="12" viewBox="0 0 16 12" fill="none" xmlns="http://www.w3.org/2000/svg">
<path stroke="none" d="M0.666667 11.3333C0.477778 11.3333 0.319444 11.2691 0.191667 11.1406C0.0638889 11.012 0 10.8528 0 10.6628C0 10.4728 0.0638889 10.3148 0.191667 10.1889C0.319444 10.063 0.477778 10 0.666667 10H15.3333C15.5222 10 15.6806 10.0643 15.8083 10.1928C15.9361 10.3213 16 10.4806 16 10.6706C16 10.8606 15.9361 11.0185 15.8083 11.1445C15.6806 11.2704 15.5222 11.3333 15.3333 11.3333H0.666667ZM0.666667 6.66667C0.477778 6.66667 0.319444 6.60241 0.191667 6.47389C0.0638889 6.34536 0 6.1861 0 5.99612C0 5.80612 0.0638889 5.64815 0.191667 5.52223C0.319444 5.3963 0.477778 5.33334 0.666667 5.33334H15.3333C15.5222 5.33334 15.6806 5.3976 15.8083 5.52612C15.9361 5.65465 16 5.81391 16 6.00389C16 6.19389 15.9361 6.35186 15.8083 6.47778C15.6806 6.60371 15.5222 6.66667 15.3333 6.66667H0.666667ZM0.666667 2.00001C0.477778 2.00001 0.319444 1.93575 0.191667 1.80723C0.0638889 1.67869 0 1.51943 0 1.32945C0 1.13945 0.0638889 0.981487 0.191667 0.855561C0.319444 0.729635 0.477778 0.666672 0.666667 0.666672H15.3333C15.5222 0.666672 15.6806 0.730931 15.8083 0.859449C15.9361 0.987983 16 1.14724 16 1.33723C16 1.52723 15.9361 1.68519 15.8083 1.81112C15.6806 1.93704 15.5222 2.00001 15.3333 2.00001H0.666667Z" fill="currentColor"/>
</svg>
