<svg width="16" height="12" viewBox="0 0 16 12" fill="none" xmlns="http://www.w3.org/2000/svg">
<path  stroke="none" d="M0.677463 11.4197C0.485515 11.4197 0.324617 11.3544 0.19477 11.2238C0.0649235 11.0932 0 10.9313 0 10.7383C0 10.5452 0.0649235 10.3847 0.19477 10.2567C0.324617 10.1287 0.485515 10.0648 0.677463 10.0648H11.0652C11.2572 10.0648 11.4181 10.1301 11.5479 10.2607C11.6778 10.3913 11.7427 10.5531 11.7427 10.7462C11.7427 10.9393 11.6778 11.0998 11.5479 11.2277C11.4181 11.3557 11.2572 11.4197 11.0652 11.4197H0.677463ZM0.677463 6.63229C0.485515 6.63229 0.324617 6.56699 0.19477 6.43639C0.0649235 6.30578 0 6.14394 0 5.95088C0 5.7578 0.0649235 5.59728 0.19477 5.46931C0.324617 5.34135 0.485515 5.27737 0.677463 5.27737H8.35537C8.54732 5.27737 8.70822 5.34266 8.83806 5.47326C8.96791 5.60388 9.03283 5.76572 9.03283 5.95878C9.03283 6.15186 8.96791 6.31238 8.83806 6.44034C8.70822 6.56831 8.54732 6.63229 8.35537 6.63229H0.677463ZM0.677463 1.93522C0.485515 1.93522 0.324617 1.86992 0.19477 1.73932C0.0649235 1.6087 0 1.44686 0 1.2538C0 1.06073 0.0649235 0.900205 0.19477 0.772239C0.324617 0.644274 0.485515 0.580292 0.677463 0.580292H11.0652C11.2572 0.580292 11.4181 0.645591 11.5479 0.776191C11.6778 0.906806 11.7427 1.06864 11.7427 1.26171C11.7427 1.45478 11.6778 1.6153 11.5479 1.74327C11.4181 1.87123 11.2572 1.93522 11.0652 1.93522H0.677463ZM12.9847 5.97741L15.8075 8.80017C15.943 8.93566 16.0069 9.09374 15.9994 9.27439C15.9919 9.45505 15.9204 9.61312 15.7849 9.74862C15.6494 9.88411 15.4875 9.95186 15.2994 9.95186C15.1112 9.95186 14.9493 9.88411 14.8138 9.74862L11.5169 6.45163C11.3814 6.31614 11.3136 6.15807 11.3136 5.97741C11.3136 5.79675 11.3814 5.63868 11.5169 5.50319L14.8138 2.2062C14.9493 2.07071 15.1112 2.00296 15.2994 2.00296C15.4875 2.00296 15.6494 2.07071 15.7849 2.2062C15.9204 2.34169 15.9881 2.50353 15.9881 2.69172C15.9881 2.8799 15.9204 3.04174 15.7849 3.17723L12.9847 5.97741Z" fill="currentColor"/>
</svg>
