<svg width="16" height="16" viewBox="0 0 16 16" fill="none" xmlns="http://www.w3.org/2000/svg">
<path stroke="none" d="M3.73585 5.73585H6.37736C6.54088 5.73585 6.6761 5.68239 6.78302 5.57547C6.88994 5.46855 6.9434 5.33333 6.9434 5.16981C6.9434 5.00629 6.88994 4.87107 6.78302 4.76415C6.6761 4.65723 6.54088 4.60377 6.37736 4.60377H3.73585C3.57233 4.60377 3.43711 4.65723 3.33019 4.76415C3.22327 4.87107 3.16981 5.00629 3.16981 5.16981C3.16981 5.33333 3.22327 5.46855 3.33019 5.57547C3.43711 5.68239 3.57233 5.73585 3.73585 5.73585ZM1.13208 12.9057C0.830189 12.9057 0.566038 12.7925 0.339623 12.566C0.113208 12.3396 0 12.0755 0 11.7736V1.96226C0 1.66038 0.113208 1.39623 0.339623 1.16981C0.566038 0.943396 0.830189 0.830189 1.13208 0.830189H14.2642C14.566 0.830189 14.8302 0.943396 15.0566 1.16981C15.283 1.39623 15.3962 1.66038 15.3962 1.96226V2.32075C15.1824 2.20755 14.9497 2.1195 14.6981 2.0566C14.4465 1.99371 14.1887 1.96226 13.9245 1.96226C13.0314 1.96226 12.2736 2.27358 11.6509 2.89623C11.0283 3.51887 10.717 4.27673 10.717 5.16981C10.717 5.61006 10.7987 6.02516 10.9623 6.41509C11.1258 6.80503 11.3522 7.14465 11.6415 7.43396H9.01887C8.54088 7.43396 8.13836 7.59748 7.81132 7.92453C7.48428 8.25157 7.32076 8.65409 7.32076 9.13208V10.3774C6.8805 10.6415 6.52516 10.9937 6.25472 11.434C5.98428 11.8742 5.83648 12.3648 5.81132 12.9057H1.13208ZM9.01887 14.0377C9.28302 14.0377 9.50629 13.9434 9.68868 13.7547C9.87107 13.566 9.96226 13.3459 9.96226 13.0943C9.96226 12.8302 9.87107 12.6069 9.68868 12.4245C9.50629 12.2421 9.28302 12.1509 9.01887 12.1509C8.7673 12.1509 8.54717 12.2421 8.35849 12.4245C8.16981 12.6069 8.07547 12.8302 8.07547 13.0943C8.07547 13.3459 8.16981 13.566 8.35849 13.7547C8.54717 13.9434 8.7673 14.0377 9.01887 14.0377ZM13.9245 6.11321C14.1887 6.11321 14.412 6.01887 14.5943 5.83019C14.7767 5.64151 14.8679 5.42138 14.8679 5.16981C14.8679 4.90566 14.7767 4.68239 14.5943 4.5C14.412 4.31761 14.1887 4.22642 13.9245 4.22642C13.673 4.22642 13.4528 4.31761 13.2642 4.5C13.0755 4.68239 12.9811 4.90566 12.9811 5.16981C12.9811 5.42138 13.0755 5.64151 13.2642 5.83019C13.4528 6.01887 13.673 6.11321 13.9245 6.11321ZM9.01887 15.1698C8.44025 15.1698 7.94969 14.9686 7.54717 14.566C7.14465 14.1635 6.9434 13.673 6.9434 13.0943C6.9434 12.6164 7.08491 12.195 7.36792 11.8302C7.65094 11.4654 8.01258 11.2201 8.45283 11.0943V9.13208C8.45283 8.96855 8.50629 8.83333 8.61321 8.72642C8.72013 8.6195 8.85535 8.56604 9.01887 8.56604H13.3585V7.16981C12.9182 7.04403 12.5566 6.79874 12.2736 6.43396C11.9906 6.06918 11.8491 5.6478 11.8491 5.16981C11.8491 4.5912 12.0503 4.10063 12.4528 3.69811C12.8553 3.2956 13.3459 3.09434 13.9245 3.09434C14.5031 3.09434 14.9937 3.2956 15.3962 3.69811C15.7987 4.10063 16 4.5912 16 5.16981C16 5.6478 15.8585 6.06918 15.5755 6.43396C15.2925 6.79874 14.9308 7.04403 14.4906 7.16981V9.13208C14.4906 9.2956 14.4371 9.43082 14.3302 9.53774C14.2233 9.64465 14.0881 9.69811 13.9245 9.69811H9.58491V11.0943C10.0252 11.2201 10.3868 11.4654 10.6698 11.8302C10.9528 12.195 11.0943 12.6164 11.0943 13.0943C11.0943 13.673 10.8931 14.1635 10.4906 14.566C10.0881 14.9686 9.59748 15.1698 9.01887 15.1698ZM6.37736 9.13208C6.54088 9.13208 6.6761 9.07862 6.78302 8.9717C6.88994 8.86478 6.9434 8.72956 6.9434 8.56604C6.9434 8.40252 6.88994 8.2673 6.78302 8.16038C6.6761 8.05346 6.54088 8 6.37736 8H3.73585C3.57233 8 3.43711 8.05346 3.33019 8.16038C3.22327 8.2673 3.16981 8.40252 3.16981 8.56604C3.16981 8.72956 3.22327 8.86478 3.33019 8.9717C3.43711 9.07862 3.57233 9.13208 3.73585 9.13208H6.37736Z" fill="currentColor"/>
</svg>
