<svg width="54" height="54" viewBox="0 0 54 54" fill="none" xmlns="http://www.w3.org/2000/svg">
<path fill-rule="evenodd" clip-rule="evenodd" d="M32 3H22V8.66476C20.4521 9.08587 18.9829 9.69774 17.6191 10.4736L13.6022 6.45668L6.45668 13.6022L10.4736 17.6191C9.69774 18.9829 9.08587 20.4521 8.66476 22H3L3 32H8.66476C9.08586 33.5478 9.69773 35.0171 10.4736 36.3809L6.45667 40.3978L13.6022 47.5433L17.619 43.5264C18.9829 44.3023 20.4521 44.9141 22 45.3352V51H32V45.3352C33.5479 44.9141 35.0171 44.3023 36.3809 43.5264L40.3978 47.5433L47.5433 40.3978L43.5264 36.3809C44.3023 35.0171 44.9141 33.5479 45.3352 32H51V22H45.3352C44.9141 20.4521 44.3023 18.9829 43.5264 17.619L47.5433 13.6022L40.3978 6.45668L36.3809 10.4736C35.0171 9.69773 33.5478 9.08586 32 8.66476V3ZM27 37C32.5228 37 37 32.5228 37 27C37 21.4772 32.5228 17 27 17C21.4772 17 17 21.4772 17 27C17 32.5228 21.4772 37 27 37Z" fill="currentColor" stroke="none"/>
</svg>
