<svg width="54" height="54" viewBox="0 0 54 54" fill="none" xmlns="http://www.w3.org/2000/svg">
<path d="M43.9706 42.5564C44.3611 42.9469 44.3611 43.58 43.9706 43.9706C43.58 44.3611 42.9469 44.3611 42.5564 43.9706L10.0294 11.4437C9.63892 11.0531 9.63892 10.42 10.0294 10.0294C10.42 9.63891 11.0531 9.63891 11.4437 10.0294L43.9706 42.5564Z" fill="currentColor" stroke="none"/>
<path d="M21 26.2C19.4842 26.2 18.1325 26.9026 17.2528 28C17.1171 28.1693 16.9926 28.348 16.8805 28.5349L17.9104 29.1512C18.1866 28.6906 18.5629 28.2968 19.0093 28C19.5795 27.6209 20.264 27.4 21 27.4C21.736 27.4 22.4205 27.6209 22.9907 28C23.3062 28.2098 23.5867 28.468 23.8217 28.7641C24.1515 29.1798 24.3915 29.6702 24.5121 30.2057L25.4121 30.0021L25.6828 29.9409C25.67 29.8844 25.6563 29.8283 25.6416 29.7726C25.4685 29.1161 25.1598 28.5146 24.7472 28C24.7233 27.9702 24.699 27.9406 24.6744 27.9114C23.7939 26.865 22.4746 26.2 21 26.2Z" fill="currentColor" stroke="none"/>
<path d="M37.8915 20.1899C37.5074 19.6581 37.0348 19.2283 36.5082 18.906C35.8564 18.5071 35.1222 18.2729 34.3715 18.2143C34.111 18.1939 33.8485 18.1947 33.5868 18.2171L33.649 18.9368L33.6901 19.4128C34.3558 19.3559 35.0282 19.4852 35.6266 19.7876C36.1238 20.0389 36.57 20.4096 36.9186 20.8924C37.9228 22.2831 37.7904 24.1488 36.7001 25.3823L37.4002 26L37.6001 26.1764C37.6511 26.1186 37.7006 26.0598 37.7486 26C39.0644 24.3578 39.1833 21.9789 37.8915 20.1899Z" fill="currentColor" stroke="none"/>
<path fill-rule="evenodd" clip-rule="evenodd" d="M26 4C26 3.44771 26.4477 3 27 3C27.5523 3 28 3.44772 28 4V7.02457C32.7695 7.25942 37.0996 9.16501 40.4174 12.1683L42.5564 10.0294C42.9469 9.63891 43.58 9.63891 43.9706 10.0294C44.3611 10.42 44.3611 11.0531 43.9706 11.4436L41.8317 13.5826C44.835 16.9004 46.7406 21.2305 46.9754 26H50C50.5523 26 51 26.4477 51 27C51 27.5523 50.5523 28 50 28H46.9754C46.4707 38.2498 38.2498 46.4707 28 46.9754V50C28 50.5523 27.5523 51 27 51C26.4477 51 26 50.5523 26 50V46.9754C21.2305 46.7406 16.9004 44.835 13.5825 41.8317L11.4437 43.9706C11.0531 44.3611 10.42 44.3611 10.0294 43.9706C9.63892 43.58 9.63892 42.9469 10.0294 42.5563L12.1683 40.4174C9.16501 37.0996 7.25942 32.7695 7.02456 28H4C3.44771 28 3 27.5523 3 27C3 26.4477 3.44772 26 4 26H7.02457C7.52928 15.7502 15.7502 7.52928 26 7.02457V4ZM25.5255 27.0603C25.6967 27.2568 25.8552 27.4645 26 27.6822C26.069 27.7859 26.1348 27.8919 26.1973 28C26.3489 28.2621 26.4812 28.5366 26.5924 28.8218C26.8556 29.497 27 30.2317 27 31C27 32.2267 26.6318 33.3675 26 34.3178C24.9251 35.9345 23.087 37 21 37C20.2317 37 19.497 36.8556 18.8218 36.5924C18.172 36.3391 17.5772 35.9758 17.0603 35.5255C15.7979 34.4255 15 32.8059 15 31C15 29.9071 15.2922 28.8825 15.8027 28C16.2671 27.1972 16.9121 26.512 17.6822 26C18.6325 25.3682 19.7733 25 21 25C22.2267 25 23.3675 25.3682 24.3178 26C24.7665 26.2983 25.1727 26.6554 25.5255 27.0603ZM21 26.2C19.4842 26.2 18.1325 26.9026 17.2528 28C17.1171 28.1693 16.9926 28.348 16.8805 28.5349L17.9104 29.1512C18.1866 28.6906 18.5629 28.2968 19.0093 28C19.5795 27.6209 20.264 27.4 21 27.4C21.736 27.4 22.4205 27.6209 22.9907 28C23.3062 28.2098 23.5867 28.468 23.8217 28.7641C24.1515 29.1798 24.3915 29.6702 24.5121 30.2057L25.4121 30.0021L25.6828 29.9409C25.67 29.8844 25.6563 29.8283 25.6416 29.7726C25.4685 29.1161 25.1598 28.5146 24.7472 28C24.7233 27.9702 24.699 27.9406 24.6744 27.9114C23.7939 26.865 22.4746 26.2 21 26.2ZM37.6001 26.1764L37.4002 26L36.7001 25.3823C37.7904 24.1488 37.9228 22.2831 36.9186 20.8924C36.57 20.4096 36.1238 20.0389 35.6266 19.7876C35.0282 19.4852 34.3558 19.3559 33.6901 19.4128L33.649 18.9368L33.5868 18.2171C33.8485 18.1947 34.111 18.1939 34.3715 18.2143C35.1222 18.2729 35.8564 18.5071 36.5082 18.906C37.0348 19.2283 37.5074 19.6581 37.8915 20.1899C39.1833 21.9789 39.0644 24.3578 37.7486 26C37.7006 26.0598 37.6511 26.1186 37.6001 26.1764ZM37.3762 18.038C37.9378 18.4201 38.4436 18.9048 38.8643 19.4874C40.2916 21.4639 40.3412 24.0164 39.1979 26C38.7872 26.7125 38.2226 27.3516 37.5126 27.8643C37.4479 27.911 37.3826 27.9562 37.3168 28C35.2598 29.3666 32.6405 29.3009 30.6804 28C30.0961 27.6122 29.5704 27.1147 29.1357 26.5126C29.1028 26.467 29.0706 26.4212 29.0392 26.375C28.9554 26.252 28.8768 26.1269 28.8033 26C28.5113 25.4955 28.3005 24.9625 28.1682 24.4176C28.061 23.9758 28.0054 23.5263 28 23.0778V22.9322C28.0222 21.0958 28.8842 19.2934 30.4874 18.1357C31.9676 17.0668 33.7709 16.7706 35.4163 17.1694C36.1096 17.3375 36.7749 17.629 37.3762 18.038Z" fill="currentColor" stroke="none"/>
</svg>
