<svg width="40" height="41" viewBox="0 0 40 41" fill="none" xmlns="http://www.w3.org/2000/svg">
<path d="M20 22.6L26.45 29.05C26.75 29.35 27.1 29.5 27.5 29.5C27.9 29.5 28.25 29.35 28.55 29.05C28.85 28.75 29 28.4 29 28C29 27.6 28.85 27.25 28.55 26.95L22.1 20.5L28.55 14.05C28.85 13.75 29 13.4 29 13C29 12.6 28.85 12.25 28.55 11.95C28.25 11.65 27.9 11.5 27.5 11.5C27.1 11.5 26.75 11.65 26.45 11.95L20 18.4L13.55 11.95C13.25 11.65 12.9 11.5 12.5 11.5C12.1 11.5 11.75 11.65 11.45 11.95C11.15 12.25 11 12.6 11 13C11 13.4 11.15 13.75 11.45 14.05L17.9 20.5L11.45 26.95C11.15 27.25 11 27.6 11 28C11 28.4 11.15 28.75 11.45 29.05C11.75 29.35 12.1 29.5 12.5 29.5C12.9 29.5 13.25 29.35 13.55 29.05L20 22.6ZM20 40.5C17.2667 40.5 14.6833 39.975 12.25 38.925C9.81667 37.875 7.69167 36.4417 5.875 34.625C4.05833 32.8083 2.625 30.6833 1.575 28.25C0.525 25.8167 0 23.2333 0 20.5C0 17.7333 0.525 15.1333 1.575 12.7C2.625 10.2667 4.05833 8.15 5.875 6.35C7.69167 4.55 9.81667 3.125 12.25 2.075C14.6833 1.025 17.2667 0.5 20 0.5C22.7667 0.5 25.3667 1.025 27.8 2.075C30.2333 3.125 32.35 4.55 34.15 6.35C35.95 8.15 37.375 10.2667 38.425 12.7C39.475 15.1333 40 17.7333 40 20.5C40 23.2333 39.475 25.8167 38.425 28.25C37.375 30.6833 35.95 32.8083 34.15 34.625C32.35 36.4417 30.2333 37.875 27.8 38.925C25.3667 39.975 22.7667 40.5 20 40.5ZM20 37.5C24.7333 37.5 28.75 35.8417 32.05 32.525C35.35 29.2083 37 25.2 37 20.5C37 15.7667 35.35 11.75 32.05 8.45C28.75 5.15 24.7333 3.5 20 3.5C15.3 3.5 11.2917 5.15 7.975 8.45C4.65833 11.75 3 15.7667 3 20.5C3 25.2 4.65833 29.2083 7.975 32.525C11.2917 35.8417 15.3 37.5 20 37.5Z" fill="currentColor"/>
</svg>
