<svg width="124" height="40" viewBox="0 0 124 40" fill="none" xmlns="http://www.w3.org/2000/svg">
<path stroke="none" d="M5.29999 32.9599H0.513207V33.8002H3.88971L0.228821 39.0194V39.8469H5.29999V39.0194H1.51672L5.29999 33.5427V32.9599Z" fill="#002652"/>
<path stroke="none" d="M7.03833 35.6984C7.02314 35.1644 7.21747 34.6456 7.57977 34.2529C7.94208 33.8603 8.44361 33.6249 8.97715 33.5972C9.24141 33.5983 9.50242 33.6556 9.7429 33.7651C9.98339 33.8747 10.1979 34.034 10.3722 34.2327C10.5465 34.4313 10.6766 34.6647 10.754 34.9174C10.8314 35.17 10.8542 35.4363 10.821 35.6984H7.03833ZM10.8751 37.7588C10.7525 38.1497 10.5067 38.4905 10.1743 38.73C9.8419 38.9696 9.44086 39.095 9.03122 39.0875C8.67024 39.0905 8.31529 38.9949 8.0047 38.8109C7.69411 38.6269 7.43969 38.3615 7.26889 38.0435C7.04836 37.5548 6.95061 37.0196 6.98414 36.4845H11.9865C12.0407 34.5734 11.119 32.7838 8.97707 32.7838C8.52478 32.7961 8.0799 32.9016 7.67019 33.0936C7.26047 33.2855 6.89472 33.5599 6.59577 33.8995C6.29681 34.2391 6.07106 34.6367 5.93262 35.0675C5.79417 35.4982 5.746 35.9529 5.79111 36.4031C5.79111 38.3287 6.86222 39.9823 8.94979 39.9823C9.58931 40.0011 10.2182 39.8154 10.7448 39.4521C11.2715 39.0888 11.6685 38.567 11.8781 37.9625L10.8751 37.7588Z" fill="#002652"/>
<path stroke="none" d="M13.3671 32.9594V39.8464H14.4243V36.3758C14.3954 35.8613 14.5129 35.3491 14.7633 34.8987C14.9252 34.5674 15.1783 34.2893 15.493 34.0971C15.8076 33.9049 16.1706 33.8066 16.5392 33.8137H16.7562V32.7974L16.3629 32.7701C15.2513 32.7701 14.6684 33.6377 14.3429 34.5734H14.3161V32.9594H13.3671Z" fill="#002652"/>
<path stroke="none" d="M20.2329 39.1012C19.928 39.1013 19.6284 39.0213 19.3643 38.869C19.1002 38.7167 18.8808 38.4976 18.7282 38.2336C18.448 37.646 18.3131 36.9996 18.3349 36.349C18.3174 35.7569 18.4333 35.1684 18.674 34.6271C18.8171 34.3354 19.0388 34.0894 19.3143 33.917C19.5897 33.7445 19.9079 33.6525 20.2328 33.6513C20.5293 33.6531 20.8207 33.7283 21.0809 33.8703C21.3412 34.0122 21.5622 34.2164 21.7242 34.4647C22.0436 35.0393 22.194 35.6925 22.158 36.349C22.189 36.9552 22.0727 37.5599 21.8191 38.1113C21.677 38.4107 21.4521 38.6631 21.1709 38.8385C20.8898 39.0139 20.5642 39.1051 20.2329 39.1012ZM20.138 39.9823C20.5925 39.9747 21.0404 39.8726 21.4532 39.6824C21.866 39.4922 22.2346 39.218 22.5356 38.8774C22.8366 38.5369 23.0634 38.1373 23.2014 37.7043C23.3394 37.2712 23.3857 36.8141 23.3374 36.3622C23.3374 34.5461 22.3341 32.7838 20.3145 32.7838C18.2401 32.7838 17.1556 34.4374 17.1556 36.349C17.1556 38.1655 18.0774 39.9823 20.138 39.9823Z" fill="#002652"/>
<path stroke="none" d="M35.9766 32.96H35.1094L33.564 38.1116L32.0185 32.96H31.2457L29.8087 38.0976L28.318 32.96H27.2469L29.3075 39.8471H30.1886L31.5989 34.7363L33.1304 39.8471H33.9975L35.9766 32.96Z" fill="#002652"/>
<path stroke="none" d="M40.5271 35.5762C39.6272 35.5255 38.7267 35.664 37.8836 35.9829C37.5099 36.1453 37.1909 36.4121 36.9649 36.7512C36.7389 37.0903 36.6155 37.4873 36.6094 37.8948C36.6157 38.1943 36.6845 38.4891 36.8115 38.7604C36.9385 39.0317 37.1208 39.2734 37.3468 39.47C37.5728 39.6666 37.8374 39.8138 38.1236 39.902C38.4099 39.9903 38.7114 40.0177 39.0089 39.9824C39.508 40.0176 40.006 39.9003 40.4369 39.646C40.8678 39.3918 41.2112 39.0125 41.4217 38.5586L41.5439 39.8465H42.6013C42.482 39.3727 42.4319 38.884 42.4523 38.3958V35.7258C42.5581 34.9259 42.3544 34.1159 41.8828 33.4613C41.5986 33.2047 41.2631 33.0115 40.8985 32.8947C40.5338 32.7779 40.1485 32.7401 39.7681 32.7839C38.5073 32.7839 36.9888 33.2314 36.7991 34.6677L37.7888 34.831C37.9785 33.8817 38.8055 33.6109 39.6731 33.6109C40.8931 33.6109 41.4217 34.0717 41.4217 35.2782V35.5762L40.5271 35.5762ZM41.4217 36.8235C41.4339 37.1205 41.3869 37.417 41.2834 37.6956C41.1799 37.9743 41.0221 38.2296 40.8189 38.4466C40.6158 38.6636 40.3715 38.8381 40.1003 38.9598C39.8292 39.0815 39.5365 39.148 39.2393 39.1554C38.48 39.1554 37.748 38.8033 37.748 37.949C37.748 36.5256 39.4562 36.3759 40.5408 36.3759H41.4217V36.8235Z" fill="#002652"/>
<path stroke="none" d="M43.6025 38.0165C43.8009 38.6435 44.2107 39.1823 44.7621 39.5409C45.3134 39.8994 45.9721 40.0555 46.6257 39.9826C47.9677 39.9826 49.4861 39.413 49.4861 37.8541C49.4896 37.5457 49.4158 37.2414 49.2713 36.969C49.1268 36.6966 48.9164 36.4648 48.6592 36.2947C48.2174 36.0406 47.7284 35.8794 47.2221 35.821L46.219 35.6442C45.609 35.5495 44.9855 35.387 44.9855 34.6411C44.9855 33.8818 45.8258 33.638 46.4494 33.638C46.8208 33.6044 47.1931 33.6919 47.5108 33.8874C47.8284 34.0828 48.0743 34.3758 48.2117 34.7224L49.1878 34.5195C49.0076 33.9577 48.6365 33.4766 48.1389 33.1596C47.6413 32.8427 47.0484 32.7098 46.4631 32.784C45.2021 32.784 43.8873 33.38 43.8873 34.8039C43.8873 36.024 44.8497 36.5121 45.9071 36.715L47.0323 36.9188C47.6289 37.0275 48.3746 37.2304 48.3746 37.9628C48.3746 38.8435 47.439 39.1014 46.7069 39.1014C45.88 39.1014 44.7819 38.7489 44.6329 37.8135L43.6025 38.0165Z" fill="#002652"/>
<path stroke="none" d="M54.198 39.0604L53.3848 39.1285C52.5172 39.1285 52.2867 38.7082 52.2867 37.9085V33.7461H53.8186V32.9055H52.2867V31.0894L51.2293 31.1973V32.9055H50.0092V33.7462H51.2293V37.7321C51.2293 39.1013 51.6767 39.9825 53.1815 39.9825L54.198 39.9011V39.0604Z" fill="#002652"/>
<path stroke="none" d="M55.8149 35.6985C55.7996 35.1644 55.9938 34.6456 56.3562 34.2529C56.7185 33.8602 57.2201 33.6249 57.7536 33.5973C58.0179 33.5985 58.2788 33.6557 58.5193 33.7653C58.7597 33.8749 58.9742 34.0342 59.1484 34.2329C59.3227 34.4315 59.4528 34.6649 59.5301 34.9175C59.6075 35.1702 59.6303 35.4364 59.597 35.6985H55.8149ZM59.6508 37.7589C59.5285 38.1498 59.2828 38.4905 58.9506 38.7301C58.6183 38.9696 58.2174 39.0951 57.8079 39.0876C57.4469 39.0907 57.0918 38.995 56.7812 38.811C56.4705 38.627 56.216 38.3617 56.0452 38.0436C55.8246 37.5549 55.7269 37.0197 55.7604 36.4846H60.7627C60.8172 34.5735 59.8955 32.7839 57.7537 32.7839C57.3014 32.7962 56.8565 32.9017 56.4468 33.0936C56.037 33.2856 55.6713 33.5599 55.3723 33.8995C55.0733 34.2392 54.8476 34.6368 54.7091 35.0675C54.5706 35.4983 54.5225 35.953 54.5676 36.4032C54.5676 38.3288 55.6385 39.9824 57.7265 39.9824C58.3659 40.0011 58.9947 39.8153 59.5213 39.4521C60.0478 39.0888 60.4448 38.567 60.6543 37.9626L59.6508 37.7589Z" fill="#002652"/>
<path stroke="none" d="M65.183 38.0164C65.3815 38.6434 65.7913 39.1822 66.3427 39.5407C66.894 39.8993 67.5527 40.0554 68.2063 39.9825C69.5483 39.9825 71.0668 39.413 71.0668 37.854C71.0703 37.5457 70.9964 37.2414 70.8519 36.969C70.7075 36.6966 70.497 36.4647 70.2398 36.2946C69.7981 36.0406 69.3092 35.8794 68.8031 35.8209L67.7996 35.6441C67.1899 35.5494 66.5659 35.387 66.5659 34.641C66.5659 33.8818 67.4065 33.6379 68.0306 33.6379C68.402 33.6045 68.7743 33.692 69.0919 33.8875C69.4095 34.0829 69.6554 34.3757 69.793 34.7224L70.7684 34.5194C70.5884 33.9575 70.2173 33.4763 69.7196 33.1593C69.2218 32.8423 68.6289 32.7095 68.0435 32.784C66.7833 32.784 65.4685 33.38 65.4685 34.8038C65.4685 36.0239 66.4303 36.512 67.4884 36.7149L68.613 36.9187C69.2098 37.0274 69.955 37.2303 69.955 37.9627C69.955 38.8435 69.0197 39.1014 68.2881 39.1014C67.4611 39.1014 66.3629 38.7488 66.2138 37.8135L65.183 38.0164Z" fill="#002652"/>
<path stroke="none" d="M75.1402 39.1013C74.8353 39.1016 74.5357 39.0215 74.2715 38.8692C74.0073 38.7169 73.7879 38.4978 73.6353 38.2338C73.3551 37.6462 73.2203 36.9998 73.2423 36.3492C73.2245 35.757 73.3405 35.1685 73.5816 34.6273C73.7245 34.3355 73.9462 34.0895 74.2216 33.917C74.4971 33.7446 74.8152 33.6526 75.1402 33.6515C75.4366 33.6533 75.728 33.7285 75.9882 33.8705C76.2484 34.0124 76.4694 34.2166 76.6314 34.4649C76.9511 35.0394 77.1016 35.6927 77.0653 36.3492C77.0962 36.9554 76.9798 37.5601 76.726 38.1115C76.5841 38.4109 76.3592 38.6633 76.0781 38.8388C75.797 39.0142 75.4715 39.1053 75.1402 39.1013ZM75.0447 39.9825C75.4992 39.975 75.9472 39.8728 76.36 39.6826C76.7728 39.4924 77.1415 39.2183 77.4426 38.8777C77.7436 38.5371 77.9704 38.1376 78.1085 37.7045C78.2465 37.2714 78.2929 36.8143 78.2445 36.3624C78.2445 34.5463 77.241 32.784 75.2212 32.784C73.1476 32.784 72.0631 34.4376 72.0631 36.3491C72.0631 38.1656 72.9847 39.9825 75.0447 39.9825Z" fill="#002652"/>
<path stroke="none" d="M80.7826 30.5474H80.2535H79.7255V39.8471H80.7826V30.5474Z" fill="#002652"/>
<path stroke="none" d="M87.9778 39.8465V32.9595H86.9205V36.6206C86.961 37.2441 86.7728 37.861 86.3911 38.3557C86.2235 38.574 86.0081 38.751 85.7614 38.8732C85.5147 38.9953 85.2433 39.0594 84.9681 39.0603C84.7428 39.0551 84.5225 38.9926 84.328 38.8787C84.1335 38.7648 83.9711 38.6033 83.8563 38.4094C83.6789 38.014 83.5999 37.5814 83.6261 37.1488V32.9595H82.5688V37.1489C82.5121 37.8774 82.7032 38.6038 83.1111 39.21C83.3285 39.4622 83.5997 39.6625 83.9046 39.7962C84.2096 39.9298 84.5406 39.9935 84.8734 39.9825C85.3352 39.9689 85.7826 39.8186 86.159 39.5507C86.5354 39.2827 86.8238 38.9092 86.9879 38.4773H87.0152V39.8466L87.9778 39.8465Z" fill="#002652"/>
<path stroke="none" d="M93.1486 39.0605L92.3351 39.1286C91.468 39.1286 91.237 38.7083 91.237 37.9086V33.7462H92.7692V32.9055H91.237V31.0895L90.1798 31.1974V32.9056H88.9597V33.7463H90.1798V37.7322C90.1798 39.1014 90.6273 39.9826 92.1322 39.9826L93.1485 39.9012L93.1486 39.0605Z" fill="#002652"/>
<path stroke="none" d="M95.2711 32.9595H94.213V39.8465H95.271L95.2711 32.9595ZM94.7377 31.7996C94.5915 31.7995 94.4487 31.756 94.3273 31.6748C94.2059 31.5935 94.1113 31.478 94.0554 31.343C93.9996 31.2079 93.9851 31.0594 94.0137 30.9161C94.0423 30.7728 94.1127 30.6412 94.2161 30.5379C94.3195 30.4346 94.4512 30.3643 94.5945 30.3359C94.7378 30.3074 94.8864 30.3221 95.0214 30.3781C95.1564 30.4341 95.2717 30.5288 95.3529 30.6503C95.434 30.7719 95.4773 30.9147 95.4773 31.0608C95.4772 31.1579 95.458 31.254 95.4208 31.3437C95.3836 31.4334 95.3291 31.5148 95.2605 31.5834C95.1918 31.652 95.1103 31.7064 95.0206 31.7435C94.9309 31.7806 94.8347 31.7997 94.7377 31.7996Z" fill="#002652"/>
<path stroke="none" d="M99.7801 39.1013C99.4752 39.1015 99.1756 39.0214 98.9115 38.8691C98.6473 38.7168 98.4279 38.4977 98.2752 38.2338C97.995 37.6462 97.8602 36.9998 97.8822 36.3492C97.8644 35.757 97.9804 35.1685 98.2214 34.6273C98.3645 34.3356 98.5862 34.0896 98.8616 33.9172C99.137 33.7447 99.4551 33.6527 99.7801 33.6515C100.077 33.6532 100.368 33.7284 100.628 33.8703C100.888 34.0123 101.109 34.2166 101.271 34.4649C101.591 35.0394 101.741 35.6927 101.705 36.3492C101.736 36.9554 101.62 37.5602 101.366 38.1115C101.224 38.4109 100.999 38.6633 100.718 38.8388C100.437 39.0142 100.111 39.1054 99.7801 39.1013ZM99.6854 39.9825C100.14 39.9749 100.588 39.8727 101.001 39.6825C101.413 39.4923 101.782 39.2181 102.083 38.8776C102.384 38.537 102.611 38.1375 102.749 37.7044C102.887 37.2714 102.933 36.8143 102.885 36.3624C102.885 34.5463 101.882 32.784 99.8618 32.784C97.7874 32.784 96.7029 34.4376 96.7029 36.3491C96.703 38.1656 97.6246 39.9825 99.6854 39.9825Z" fill="#002652"/>
<path stroke="none" d="M105.276 32.9596H104.273V39.8465H105.331V36.2408C105.279 35.5763 105.472 34.9158 105.873 34.3834C106.045 34.1703 106.261 33.9978 106.507 33.8783C106.753 33.7588 107.023 33.6953 107.296 33.6924C107.529 33.6904 107.759 33.7463 107.965 33.8551C108.171 33.9639 108.346 34.1222 108.476 34.3157C108.642 34.7188 108.707 35.156 108.665 35.5898V39.8465H109.723V36.0375C109.796 35.2941 109.684 34.5443 109.398 33.8545C109.199 33.5165 108.913 33.2385 108.569 33.0501C108.225 32.8616 107.837 32.7697 107.445 32.784C106.986 32.7897 106.538 32.9302 106.157 33.1879C105.776 33.4457 105.48 33.8095 105.304 34.2343H105.276L105.276 32.9596Z" fill="#002652"/>
<path stroke="none" d="M110.97 38.0164C111.168 38.6434 111.578 39.1822 112.129 39.5408C112.68 39.8994 113.339 40.0555 113.992 39.9825C115.334 39.9825 116.853 39.413 116.853 37.854C116.856 37.5456 116.782 37.2413 116.638 36.9689C116.493 36.6965 116.283 36.4647 116.026 36.2946C115.584 36.0405 115.095 35.8794 114.589 35.8209L113.585 35.6441C112.976 35.5494 112.352 35.3869 112.352 34.641C112.352 33.8817 113.192 33.6379 113.816 33.6379C114.187 33.6043 114.56 33.6918 114.877 33.8872C115.195 34.0827 115.441 34.3756 115.578 34.7223L116.554 34.5194C116.374 33.9575 116.003 33.4763 115.505 33.1593C115.008 32.8423 114.415 32.7095 113.829 32.784C112.569 32.784 111.254 33.38 111.254 34.8038C111.254 36.0239 112.216 36.512 113.273 36.7149L114.399 36.9187C114.996 37.0274 115.741 37.2303 115.741 37.9627C115.741 38.8435 114.806 39.1013 114.074 39.1013C113.247 39.1013 112.149 38.7488 112 37.8134L110.97 38.0164Z" fill="#002652"/>
<path stroke="none" d="M0.513611 8.4549V23.5845H4.89246V8.4549H2.62786H0.513611Z" fill="#002652"/>
<path stroke="none" d="M2.62797 0.000274658C2.10821 0.000302336 1.60013 0.154444 1.16798 0.443211C0.735821 0.731978 0.398992 1.1424 0.200078 1.62259C0.00116483 2.10277 -0.0508999 2.63116 0.0504671 3.14093C0.151834 3.65071 0.402081 4.11898 0.769565 4.48654C1.13705 4.8541 1.60527 5.10444 2.11502 5.20591C2.62478 5.30738 3.15317 5.25543 3.6334 5.05661C4.11363 4.8578 4.52412 4.52105 4.81297 4.08895C5.10183 3.65685 5.25607 3.14881 5.25621 2.62905C5.25625 2.28387 5.1883 1.94206 5.05623 1.62314C4.92417 1.30422 4.73059 1.01444 4.48653 0.770331C4.24248 0.526225 3.95273 0.332581 3.63384 0.200455C3.31494 0.068328 2.97315 0.000306799 2.62797 0.000274658Z" fill="#002652"/>
<path stroke="none" d="M16.8096 8.15668C15.8719 8.09278 14.939 8.33785 14.1538 8.85441C13.3686 9.37097 12.7742 10.1306 12.4616 11.017H12.4022V8.4551H8.26221V23.5851H12.6408V15.454C12.5832 14.5322 12.7571 13.6106 13.1468 12.7733C13.3228 12.4349 13.5877 12.1508 13.9129 11.9516C14.2381 11.7524 14.6115 11.6454 14.9929 11.6423C17.1974 11.6423 16.9891 13.906 16.9891 15.454V23.5851H21.3663V14.233C21.3663 12.8634 21.3663 10.9572 20.5329 9.82491C20.0924 9.26766 19.5239 8.825 18.8757 8.53457C18.2274 8.24413 17.5187 8.11447 16.8096 8.15668Z" fill="#002652"/>
<path stroke="none" d="M30.0191 17.9262V11.9096H33.2655V8.42583H30.0191V3.68982L26.2072 3.98738L25.8197 8.42583H23.1695V11.9096H25.641V18.5815C25.641 20.0711 25.641 21.8866 26.862 22.8987C28.0266 23.6287 29.3918 23.973 30.7633 23.8827C31.5828 23.8509 32.399 23.7611 33.2058 23.6141L33.5035 23.5548V20.2493L32.1336 20.3089C30.0191 20.3984 30.0191 19.6835 30.0191 17.9262Z" fill="#002652"/>
<path stroke="none" d="M42.775 11.0168C44.6812 11.0168 45.2169 12.5354 45.3062 14.1727H39.9454C40.0947 12.4462 40.8394 11.0168 42.775 11.0168ZM49.6849 16.7648C49.8217 14.6737 49.2782 12.5944 48.1356 10.8377C47.4828 9.9926 46.6428 9.31058 45.6816 8.84533C44.7204 8.38008 43.6643 8.1443 42.5966 8.15655C37.8909 8.15655 35.2401 11.7611 35.2401 16.2281C35.2401 20.7252 38.1885 23.8826 42.7156 23.8826C44.2844 23.927 45.8215 23.4346 47.0725 22.4869C48.3235 21.5391 49.2135 20.1928 49.5954 18.6704L45.5452 18.3724C45.4955 19.04 45.1878 19.662 44.6874 20.1068C44.187 20.5515 43.5332 20.784 42.8643 20.7551C42.452 20.7573 42.0438 20.6722 41.6667 20.5053C41.2896 20.3384 40.9521 20.0936 40.6763 19.787C40.4006 19.4803 40.1929 19.1188 40.067 18.7261C39.941 18.3334 39.8996 17.9186 39.9454 17.5087L39.9757 16.7648H49.6849Z" fill="#002652"/>
<path stroke="none" d="M56.5336 11.2843H56.4737V8.45541H52.3937V23.5853H56.7718V17.807C56.7718 15.1272 57.1884 12.4162 60.5244 12.5957V8.21802L59.78 8.15691C57.8737 8.00763 56.9804 9.67677 56.5336 11.2843Z" fill="#002652"/>
<path stroke="none" d="M74.3957 11.2558V8.45627H63.272V11.6043H69.6917L62.5529 20.4937V23.5859H74.6929V20.3387H67.0856L74.3957 11.2558Z" fill="#009DD3"/>
<path stroke="none" d="M83.6396 11.0171C85.5453 11.0171 86.0821 12.5356 86.1711 14.173H80.8107C80.9599 12.4465 81.7038 11.0171 83.6396 11.0171ZM90.5485 16.7651C90.6857 14.6741 90.1427 12.5949 89.0007 10.8379C88.3478 9.99283 87.5076 9.31081 86.5464 8.84556C85.5851 8.38031 84.529 8.14454 83.4611 8.1568C78.7558 8.1568 76.1046 11.7614 76.1046 16.2283C76.1046 20.7255 79.053 23.8828 83.5805 23.8828C85.1493 23.9272 86.6862 23.4348 87.9372 22.4871C89.1881 21.5393 90.078 20.193 90.4598 18.6707L86.4091 18.3726C86.3595 19.0402 86.052 19.6623 85.5517 20.107C85.0514 20.5518 84.3976 20.7843 83.7288 20.7553C83.3165 20.7575 82.9084 20.6723 82.5313 20.5054C82.1543 20.3385 81.8168 20.0937 81.5412 19.7871C81.2655 19.4804 81.0579 19.1189 80.932 18.7262C80.8061 18.3336 80.7648 17.9187 80.8107 17.509L80.8405 16.7651H90.5485Z" fill="#009DD3"/>
<path stroke="none" d="M97.3968 11.2843H97.3375V8.45535H93.2573V23.5853H97.6346V17.8069C97.6346 15.1271 98.0521 12.4161 101.388 12.5956V8.21796L100.643 8.15685C98.7372 8.00757 97.8436 9.67671 97.3968 11.2843Z" fill="#009DD3"/>
<path stroke="none" d="M109.77 20.9641C107.268 20.9641 107.298 17.2709 107.298 15.5431C107.298 13.8151 107.447 11.0458 109.799 11.0458C110.251 10.9998 110.705 11.111 111.085 11.3605C111.464 11.6101 111.746 11.9828 111.884 12.416C112.25 13.6318 112.412 14.9004 112.361 16.1693C112.361 17.9859 112.242 20.9641 109.77 20.9641ZM109.77 8.15665C105.154 8.15665 102.592 11.5822 102.592 15.9903C102.592 20.3686 105.123 23.8827 109.77 23.8827C114.237 23.8827 117.066 20.4576 117.066 16.139C117.066 11.6717 114.505 8.15665 109.77 8.15665Z" fill="#009DD3"/>
<path stroke="none" d="M119.091 2.46737H119.674C120.171 2.46737 120.308 2.65578 120.308 2.86131C120.308 3.20406 120.033 3.39248 119.622 3.39248H119.091V2.46737ZM118.08 1.74779V5.53409H119.091V4.16344H119.691L120.291 5.53409H121.353L120.65 3.88936C120.862 3.82034 121.044 3.68426 121.171 3.50181C121.298 3.31936 121.362 3.10051 121.353 2.87852C121.353 2.12474 120.77 1.74779 119.931 1.74779H118.08ZM116.847 3.64946C116.844 3.28095 116.914 2.91552 117.053 2.57425C117.192 2.23297 117.398 1.9226 117.657 1.66102C117.917 1.39944 118.226 1.19183 118.566 1.05015C118.906 0.908475 119.271 0.835533 119.639 0.835533C120.008 0.835533 120.373 0.908475 120.713 1.05015C121.053 1.19183 121.362 1.39944 121.622 1.66102C121.881 1.9226 122.087 2.23297 122.226 2.57425C122.365 2.91552 122.435 3.28095 122.432 3.64946C122.432 4.39008 122.138 5.10036 121.614 5.62406C121.09 6.14775 120.38 6.44196 119.639 6.44196C118.899 6.44196 118.189 6.14775 117.665 5.62406C117.141 5.10036 116.847 4.39008 116.847 3.64946ZM119.64 0.000328469C119.159 -0.00614875 118.683 0.083942 118.238 0.26525C117.793 0.446559 117.39 0.715387 117.051 1.05577C116.712 1.39615 116.445 1.80115 116.266 2.2467C116.087 2.69226 115.999 3.16929 116.007 3.64946C116.009 4.61163 116.393 5.53379 117.074 6.21354C117.754 6.89329 118.677 7.27506 119.639 7.27506C120.602 7.27506 121.525 6.89329 122.205 6.21354C122.886 5.53379 123.27 4.61163 123.272 3.64946C123.28 3.16928 123.192 2.69224 123.013 2.24668C122.834 1.80111 122.567 1.3961 122.228 1.05572C121.89 0.715328 121.486 0.446501 121.041 0.265201C120.596 0.0839012 120.12 -0.00617306 119.64 0.000328469Z" fill="#009DD3"/>
</svg>
