<svg width="18" height="18" viewBox="0 0 18 18" fill="none" xmlns="http://www.w3.org/2000/svg">
<path d="M7.59998 10.7462L5.27688 8.42308C5.13842 8.28461 4.96439 8.21378 4.75478 8.21058C4.54518 8.20736 4.36794 8.27819 4.22308 8.42308C4.07819 8.56794 4.00575 8.74358 4.00575 8.94998C4.00575 9.15638 4.07819 9.33201 4.22308 9.47688L6.9673 12.2211C7.14807 12.4019 7.35896 12.4923 7.59998 12.4923C7.84099 12.4923 8.05188 12.4019 8.23265 12.2211L13.7961 6.65765C13.9346 6.5192 14.0054 6.34517 14.0086 6.13555C14.0118 5.92593 13.941 5.74869 13.7961 5.60383C13.6513 5.45896 13.4756 5.38653 13.2692 5.38653C13.0628 5.38653 12.8872 5.45896 12.7423 5.60383L7.59998 10.7462ZM2.3077 17.5C1.80257 17.5 1.375 17.325 1.025 16.975C0.675 16.625 0.5 16.1974 0.5 15.6923V2.3077C0.5 1.80257 0.675 1.375 1.025 1.025C1.375 0.675 1.80257 0.5 2.3077 0.5H15.6923C16.1974 0.5 16.625 0.675 16.975 1.025C17.325 1.375 17.5 1.80257 17.5 2.3077V15.6923C17.5 16.1974 17.325 16.625 16.975 16.975C16.625 17.325 16.1974 17.5 15.6923 17.5H2.3077Z" fill="currentColor"/>
</svg>
