<svg width="18" height="18" viewBox="0 0 18 18" fill="none" xmlns="http://www.w3.org/2000/svg">
<path d="M4.99998 9.74995H13C13.2128 9.74995 13.391 9.67816 13.5346 9.53458C13.6782 9.39099 13.75 9.21279 13.75 8.99998C13.75 8.78716 13.6782 8.60896 13.5346 8.46538C13.391 8.32179 13.2128 8.25 13 8.25H4.99998C4.78716 8.25 4.60896 8.32179 4.46538 8.46538C4.32179 8.60896 4.25 8.78716 4.25 8.99998C4.25 9.21279 4.32179 9.39099 4.46538 9.53458C4.60896 9.67816 4.78716 9.74995 4.99998 9.74995ZM2.3077 17.5C1.80257 17.5 1.375 17.325 1.025 16.975C0.675 16.625 0.5 16.1974 0.5 15.6923V2.3077C0.5 1.80257 0.675 1.375 1.025 1.025C1.375 0.675 1.80257 0.5 2.3077 0.5H15.6923C16.1974 0.5 16.625 0.675 16.975 1.025C17.325 1.375 17.5 1.80257 17.5 2.3077V15.6923C17.5 16.1974 17.325 16.625 16.975 16.975C16.625 17.325 16.1974 17.5 15.6923 17.5H2.3077Z" fill="currentColor"/>
</svg>
