<svg width="18" height="18" viewBox="0 0 18 18" fill="none" xmlns="http://www.w3.org/2000/svg">
<path d="M2.3077 17.5C1.80257 17.5 1.375 17.325 1.025 16.975C0.675 16.625 0.5 16.1974 0.5 15.6923V2.3077C0.5 1.80257 0.675 1.375 1.025 1.025C1.375 0.675 1.80257 0.5 2.3077 0.5H15.6923C16.1974 0.5 16.625 0.675 16.975 1.025C17.325 1.375 17.5 1.80257 17.5 2.3077V15.6923C17.5 16.1974 17.325 16.625 16.975 16.975C16.625 17.325 16.1974 17.5 15.6923 17.5H2.3077ZM2.3077 16H15.6923C15.7692 16 15.8397 15.9679 15.9038 15.9038C15.9679 15.8397 16 15.7692 16 15.6923V2.3077C16 2.23077 15.9679 2.16024 15.9038 2.09613C15.8397 2.03203 15.7692 1.99998 15.6923 1.99998H2.3077C2.23077 1.99998 2.16024 2.03203 2.09612 2.09613C2.03202 2.16024 1.99997 2.23077 1.99997 2.3077V15.6923C1.99997 15.7692 2.03202 15.8397 2.09612 15.9038C2.16024 15.9679 2.23077 16 2.3077 16Z" fill="currentColor"/>
</svg>
