<svg width="17" height="18" viewBox="0 0 17 18" fill="none" xmlns="http://www.w3.org/2000/svg">
<path d="M6.17639 12.7893C4.4687 12.7893 3.02256 12.197 1.83796 11.0124C0.653343 9.82778 0.0610352 8.38163 0.0610352 6.67394C0.0610352 4.96626 0.653343 3.52011 1.83796 2.33549C3.02256 1.15089 4.4687 0.558594 6.17639 0.558594C7.88407 0.558594 9.33022 1.15089 10.5148 2.33549C11.6995 3.52011 12.2918 4.96626 12.2918 6.67394C12.2918 7.38804 12.1719 8.07009 11.9321 8.72009C11.6924 9.37009 11.3725 9.93548 10.9725 10.4162L16.7264 16.1701C16.8648 16.3086 16.9357 16.4826 16.9389 16.6922C16.9421 16.9018 16.8713 17.0791 16.7264 17.2239C16.5815 17.3688 16.4059 17.4412 16.1995 17.4412C15.9931 17.4412 15.8174 17.3688 15.6726 17.2239L9.91868 11.4701C9.41868 11.8829 8.84369 12.206 8.19369 12.4393C7.54369 12.6726 6.87125 12.7893 6.17639 12.7893ZM6.17639 11.2893C7.46485 11.2893 8.5562 10.8422 9.45043 9.94799C10.3447 9.05376 10.7918 7.96241 10.7918 6.67394C10.7918 5.38548 10.3447 4.29413 9.45043 3.39989C8.5562 2.50566 7.46485 2.05854 6.17639 2.05854C4.88792 2.05854 3.79657 2.50566 2.90234 3.39989C2.00812 4.29413 1.56101 5.38548 1.56101 6.67394C1.56101 7.96241 2.00812 9.05376 2.90234 9.94799C3.79657 10.8422 4.88792 11.2893 6.17639 11.2893Z" fill="currentColor"/>
</svg>
