<svg width="124" height="41" viewBox="0 0 124 41" fill="none" xmlns="http://www.w3.org/2000/svg">
<path d="M5.66394 33.204H0.87716V34.0444H4.25367L0.592773 39.2636V40.0911H5.66394V39.2636H1.88067L5.66394 33.7868V33.204Z" fill="white"/>
<path d="M7.40229 35.9425C7.38711 35.4085 7.58144 34.8897 7.94374 34.497C8.30604 34.1044 8.80757 33.869 9.34112 33.8413C9.60538 33.8424 9.86639 33.8997 10.1069 34.0092C10.3474 34.1188 10.5618 34.2781 10.7361 34.4768C10.9104 34.6754 11.0406 34.9088 11.118 35.1615C11.1953 35.4141 11.2182 35.6804 11.185 35.9425H7.40229ZM11.239 38.0029C11.1165 38.3938 10.8707 38.7346 10.5383 38.9741C10.2059 39.2137 9.80483 39.3391 9.39519 39.3316C9.03421 39.3346 8.67926 39.239 8.36867 39.055C8.05808 38.871 7.80365 38.6057 7.63286 38.2876C7.41233 37.7989 7.31458 37.2637 7.34811 36.7286H12.3505C12.4047 34.8175 11.483 33.0279 9.34104 33.0279C8.88875 33.0403 8.44387 33.1457 8.03415 33.3377C7.62444 33.5296 7.25869 33.804 6.95973 34.1436C6.66078 34.4832 6.43503 34.8808 6.29659 35.3116C6.15814 35.7423 6.10997 36.197 6.15507 36.6472C6.15507 38.5728 7.22618 40.2264 9.31376 40.2264C9.95328 40.2452 10.5821 40.0595 11.1088 39.6962C11.6354 39.3329 12.0325 38.8111 12.2421 38.2066L11.239 38.0029Z" fill="white"/>
<path d="M13.731 33.2036V40.0905H14.7882V36.62C14.7593 36.1055 14.8768 35.5933 15.1271 35.1428C15.289 34.8116 15.5422 34.5335 15.8568 34.3413C16.1715 34.1491 16.5345 34.0508 16.9031 34.0579H17.1201V33.0416L16.7268 33.0143C15.6152 33.0143 15.0323 33.8818 14.7068 34.8175H14.68V33.2036H13.731Z" fill="white"/>
<path d="M20.5968 39.3453C20.292 39.3454 19.9924 39.2654 19.7283 39.1131C19.4641 38.9608 19.2448 38.7417 19.0922 38.4777C18.8119 37.8901 18.6771 37.2437 18.6989 36.5931C18.6814 36.001 18.7972 35.4125 19.0379 34.8713C19.181 34.5795 19.4028 34.3335 19.6782 34.1611C19.9537 33.9887 20.2718 33.8966 20.5968 33.8954C20.8932 33.8972 21.1846 33.9724 21.4449 34.1144C21.7051 34.2563 21.9262 34.4606 22.0882 34.7088C22.4076 35.2834 22.558 35.9367 22.522 36.5931C22.5529 37.1993 22.4366 37.804 22.183 38.3554C22.0409 38.6548 21.816 38.9072 21.5349 39.0826C21.2537 39.258 20.9282 39.3492 20.5968 39.3453ZM20.502 40.2264C20.9564 40.2189 21.4043 40.1167 21.8171 39.9265C22.2299 39.7363 22.5986 39.4621 22.8996 39.1215C23.2006 38.781 23.4273 38.3814 23.5653 37.9484C23.7034 37.5153 23.7497 37.0582 23.7013 36.6063C23.7013 34.7902 22.698 33.0279 20.6784 33.0279C18.604 33.0279 17.5195 34.6815 17.5195 36.5931C17.5196 38.4096 18.4414 40.2264 20.502 40.2264Z" fill="white"/>
<path d="M36.3401 33.2041H35.4729L33.9275 38.3557L32.382 33.2041H31.6092L30.1722 38.3417L28.6815 33.2041H27.6104L29.671 40.0911H30.5521L31.9624 34.9804L33.4939 40.0911H34.361L36.3401 33.2041Z" fill="white"/>
<path d="M40.8909 35.8203C39.991 35.7695 39.0904 35.9081 38.2474 36.2269C37.8736 36.3894 37.5546 36.6561 37.3286 36.9952C37.1026 37.3343 36.9792 37.7314 36.9731 38.1389C36.9794 38.4384 37.0482 38.7332 37.1752 39.0045C37.3022 39.2758 37.4846 39.5175 37.7106 39.7141C37.9365 39.9107 38.2011 40.0578 38.4874 40.1461C38.7736 40.2343 39.0751 40.2617 39.3726 40.2265C39.8717 40.2617 40.3697 40.1444 40.8006 39.8901C41.2315 39.6358 41.575 39.2566 41.7855 38.8027L41.9076 40.0906H42.9651C42.8458 39.6167 42.7956 39.1281 42.8161 38.6399V35.9699C42.9219 35.17 42.7181 34.36 42.2465 33.7054C41.9624 33.4488 41.6268 33.2556 41.2622 33.1388C40.8976 33.022 40.5123 32.9842 40.1319 33.028C38.8711 33.028 37.3526 33.4755 37.1629 34.9118L38.1525 35.0751C38.3423 34.1257 39.1692 33.855 40.0368 33.855C41.2569 33.855 41.7855 34.3158 41.7855 35.5222V35.8202L40.8909 35.8203ZM41.7854 37.0676C41.7977 37.3646 41.7507 37.6611 41.6472 37.9397C41.5437 38.2184 41.3858 38.4737 41.1827 38.6907C40.9796 38.9077 40.7353 39.0822 40.4641 39.2039C40.1929 39.3255 39.9002 39.3921 39.603 39.3995C38.8438 39.3995 38.1118 39.0474 38.1118 38.1931C38.1118 36.7696 39.82 36.62 40.9045 36.62H41.7854V37.0676Z" fill="white"/>
<path d="M43.9663 38.2606C44.1647 38.8876 44.5745 39.4264 45.1258 39.785C45.6772 40.1435 46.3358 40.2996 46.9895 40.2267C48.3315 40.2267 49.8499 39.6572 49.8499 38.0982C49.8534 37.7898 49.7795 37.4856 49.6351 37.2131C49.4906 36.9407 49.2801 36.7089 49.0229 36.5388C48.5812 36.2847 48.0921 36.1235 47.5859 36.0651L46.5828 35.8883C45.9727 35.7936 45.3493 35.6311 45.3493 34.8852C45.3493 34.1259 46.1896 33.8821 46.8132 33.8821C47.1846 33.8485 47.5569 33.936 47.8745 34.1315C48.1922 34.3269 48.4381 34.6199 48.5755 34.9665L49.5516 34.7636C49.3714 34.2018 49.0003 33.7207 48.5027 33.4037C48.005 33.0868 47.4122 32.9539 46.8269 33.0282C45.5658 33.0282 44.2511 33.6242 44.2511 35.048C44.2511 36.2681 45.2135 36.7562 46.2709 36.9591L47.3961 37.1629C47.9927 37.2716 48.7383 37.4745 48.7383 38.2069C48.7383 39.0877 47.8028 39.3455 47.0707 39.3455C46.2438 39.3455 45.1456 38.993 44.9967 38.0576L43.9663 38.2606Z" fill="white"/>
<path d="M54.5619 39.3045L53.7487 39.3726C52.881 39.3726 52.6506 38.9523 52.6506 38.1526V33.9902H54.1825V33.1496H52.6506V31.3335L51.5931 31.4414V33.1496H50.373V33.9903H51.5931V37.9762C51.5931 39.3455 52.0406 40.2266 53.5454 40.2266L54.5619 40.1452V39.3045Z" fill="white"/>
<path d="M56.1787 35.9426C56.1634 35.4085 56.3577 34.8897 56.72 34.497C57.0824 34.1043 57.5839 33.869 58.1175 33.8414C58.3818 33.8425 58.6427 33.8998 58.8832 34.0094C59.1236 34.1189 59.3381 34.2783 59.5123 34.4769C59.6866 34.6756 59.8167 34.9089 59.894 35.1616C59.9713 35.4143 59.9941 35.6805 59.9609 35.9426H56.1787ZM60.0146 38.0029C59.8923 38.3938 59.6467 38.7346 59.3144 38.9742C58.9822 39.2137 58.5813 39.3392 58.1718 39.3317C57.8107 39.3347 57.4557 39.2391 57.1451 39.0551C56.8344 38.8711 56.5799 38.6058 56.409 38.2877C56.1885 37.799 56.0907 37.2638 56.1243 36.7287H61.1266C61.1811 34.8175 60.2594 33.028 58.1176 33.028C57.6653 33.0403 57.2204 33.1457 56.8107 33.3377C56.4009 33.5296 56.0352 33.804 55.7362 34.1436C55.4372 34.4832 55.2114 34.8808 55.073 35.3116C54.9345 35.7424 54.8863 36.1971 54.9314 36.6473C54.9314 38.5729 56.0023 40.2265 58.0904 40.2265C58.7298 40.2452 59.3586 40.0594 59.8851 39.6962C60.4117 39.3329 60.8087 38.8111 61.0182 38.2067L60.0146 38.0029Z" fill="white"/>
<path d="M65.5469 38.2605C65.7453 38.8876 66.1552 39.4263 66.7066 39.7848C67.2579 40.1434 67.9166 40.2995 68.5702 40.2266C69.9122 40.2266 71.4307 39.6571 71.4307 38.0981C71.4342 37.7898 71.3603 37.4855 71.2158 37.2131C71.0713 36.9407 70.8609 36.7088 70.6037 36.5387C70.162 36.2847 69.6731 36.1235 69.167 36.065L68.1635 35.8882C67.5538 35.7935 66.9298 35.6311 66.9298 34.8851C66.9298 34.1259 67.7704 33.882 68.3945 33.882C68.7659 33.8486 69.1382 33.9361 69.4558 34.1316C69.7734 34.327 70.0193 34.6199 70.1569 34.9665L71.1323 34.7635C70.9523 34.2016 70.5812 33.7204 70.0835 33.4034C69.5857 33.0864 68.9927 32.9536 68.4074 33.0281C67.1472 33.0281 65.8324 33.6241 65.8324 35.0479C65.8324 36.268 66.7942 36.7561 67.8523 36.9591L68.9769 37.1628C69.5737 37.2715 70.3189 37.4745 70.3189 38.2068C70.3189 39.0876 69.3836 39.3455 68.652 39.3455C67.825 39.3455 66.7268 38.9929 66.5777 38.0576L65.5469 38.2605Z" fill="white"/>
<path d="M75.5043 39.3455C75.1994 39.3457 74.8998 39.2656 74.6356 39.1133C74.3715 38.961 74.152 38.7419 73.9994 38.4779C73.7192 37.8903 73.5844 37.2439 73.6064 36.5933C73.5886 36.0011 73.7046 35.4126 73.9457 34.8714C74.0886 34.5796 74.3104 34.3336 74.5858 34.1611C74.8612 33.9887 75.1794 33.8967 75.5043 33.8956C75.8007 33.8974 76.0921 33.9726 76.3523 34.1146C76.6126 34.2565 76.8335 34.4607 76.9955 34.709C77.3152 35.2835 77.4657 35.9368 77.4295 36.5933C77.4603 37.1995 77.3439 37.8042 77.0902 38.3556C76.9482 38.655 76.7233 38.9074 76.4423 39.0829C76.1612 39.2583 75.8356 39.3494 75.5043 39.3455ZM75.4089 40.2266C75.8634 40.2191 76.3113 40.1169 76.7241 39.9267C77.137 39.7365 77.5057 39.4624 77.8067 39.1218C78.1077 38.7812 78.3345 38.3817 78.4726 37.9486C78.6107 37.5155 78.657 37.0585 78.6087 36.6065C78.6087 34.7904 77.6052 33.0281 75.5853 33.0281C73.5118 33.0281 72.4272 34.6817 72.4272 36.5933C72.4272 38.4097 73.3489 40.2266 75.4089 40.2266Z" fill="white"/>
<path d="M81.1465 30.7916H80.6173H80.0894V40.0912H81.1465V30.7916Z" fill="white"/>
<path d="M88.3416 40.0906V33.2037H87.2843V36.8648C87.3248 37.4883 87.1366 38.1051 86.7549 38.5998C86.5873 38.8182 86.3719 38.9952 86.1252 39.1173C85.8785 39.2395 85.6071 39.3035 85.3319 39.3045C85.1066 39.2992 84.8863 39.2367 84.6918 39.1228C84.4973 39.009 84.3349 38.8475 84.2201 38.6535C84.0427 38.2581 83.9637 37.8256 83.9899 37.3929V33.2037H82.9326V37.393C82.8759 38.1216 83.067 38.8479 83.4749 39.4542C83.6923 39.7064 83.9635 39.9066 84.2684 40.0403C84.5734 40.174 84.9044 40.2376 85.2372 40.2266C85.699 40.213 86.1464 40.0627 86.5228 39.7948C86.8992 39.5269 87.1876 39.1533 87.3517 38.7214H87.379V40.0907L88.3416 40.0906Z" fill="white"/>
<path d="M93.5126 39.3046L92.6992 39.3728C91.832 39.3728 91.601 38.9525 91.601 38.1527V33.9904H93.1332V33.1497H91.601V31.3336L90.5438 31.4415V33.1497H89.3237V33.9904H90.5438V37.9763C90.5438 39.3456 90.9913 40.2267 92.4962 40.2267L93.5126 40.1453L93.5126 39.3046Z" fill="white"/>
<path d="M95.635 33.2037H94.5769V40.0907H95.6349L95.635 33.2037ZM95.1016 32.0438C94.9554 32.0437 94.8126 32.0002 94.6912 31.9189C94.5698 31.8377 94.4752 31.7222 94.4193 31.5871C94.3635 31.4521 94.349 31.3035 94.3776 31.1602C94.4062 31.0169 94.4766 30.8853 94.58 30.7821C94.6834 30.6788 94.8151 30.6085 94.9584 30.58C95.1017 30.5516 95.2503 30.5663 95.3853 30.6223C95.5202 30.6782 95.6356 30.773 95.7167 30.8945C95.7979 31.016 95.8412 31.1589 95.8412 31.305C95.8411 31.4021 95.8219 31.4982 95.7847 31.5879C95.7475 31.6775 95.693 31.759 95.6244 31.8276C95.5557 31.8962 95.4742 31.9506 95.3845 31.9877C95.2948 32.0248 95.1986 32.0438 95.1016 32.0438Z" fill="white"/>
<path d="M100.144 39.3455C99.8392 39.3456 99.5396 39.2655 99.2754 39.1132C99.0113 38.9609 98.7919 38.7418 98.6392 38.4779C98.359 37.8903 98.2242 37.2439 98.2461 36.5933C98.2284 36.0011 98.3444 35.4126 98.5854 34.8714C98.7284 34.5797 98.9502 34.3337 99.2256 34.1613C99.501 33.9888 99.8191 33.8968 100.144 33.8956C100.44 33.8973 100.732 33.9725 100.992 34.1144C101.252 34.2564 101.473 34.4607 101.635 34.709C101.955 35.2835 102.105 35.9368 102.069 36.5933C102.1 37.1995 101.984 37.8043 101.73 38.3556C101.588 38.655 101.363 38.9074 101.082 39.0829C100.801 39.2583 100.475 39.3495 100.144 39.3455ZM100.049 40.2266C100.504 40.219 100.952 40.1168 101.365 39.9266C101.777 39.7364 102.146 39.4623 102.447 39.1217C102.748 38.7811 102.975 38.3816 103.113 37.9485C103.251 37.5155 103.297 37.0584 103.249 36.6065C103.249 34.7904 102.246 33.0281 100.226 33.0281C98.1514 33.0281 97.0669 34.6817 97.0669 36.5933C97.0669 38.4097 97.9886 40.2266 100.049 40.2266Z" fill="white"/>
<path d="M105.64 33.2037H104.637V40.0907H105.695V36.485C105.643 35.8204 105.836 35.16 106.237 34.6276C106.408 34.4144 106.625 34.2419 106.871 34.1224C107.117 34.003 107.387 33.9395 107.66 33.9365C107.893 33.9345 108.123 33.9904 108.329 34.0992C108.535 34.208 108.71 34.3663 108.84 34.5598C109.005 34.9629 109.07 35.4002 109.029 35.834V40.0907H110.087V36.2816C110.16 35.5382 110.048 34.7884 109.762 34.0986C109.563 33.7606 109.277 33.4827 108.933 33.2942C108.589 33.1058 108.201 33.0138 107.809 33.0281C107.35 33.0338 106.902 33.1743 106.521 33.4321C106.14 33.6899 105.843 34.0537 105.667 34.4784H105.64L105.64 33.2037Z" fill="white"/>
<path d="M111.333 38.2605C111.532 38.8875 111.941 39.4263 112.493 39.7849C113.044 40.1435 113.702 40.2996 114.356 40.2266C115.698 40.2266 117.217 39.6571 117.217 38.0981C117.22 37.7897 117.146 37.4855 117.002 37.213C116.857 36.9406 116.647 36.7088 116.389 36.5387C115.948 36.2847 115.459 36.1235 114.953 36.065L113.949 35.8882C113.34 35.7935 112.716 35.6311 112.716 34.8851C112.716 34.1258 113.556 33.882 114.18 33.882C114.551 33.8484 114.923 33.9359 115.241 34.1313C115.559 34.3268 115.804 34.6197 115.942 34.9665L116.918 34.7635C116.738 34.2016 116.367 33.7204 115.869 33.4034C115.372 33.0864 114.779 32.9536 114.193 33.0281C112.933 33.0281 111.618 33.6241 111.618 35.0479C111.618 36.268 112.58 36.7561 113.637 36.959L114.763 37.1628C115.36 37.2715 116.105 37.4744 116.105 38.2068C116.105 39.0876 115.169 39.3455 114.438 39.3455C113.611 39.3455 112.513 38.9929 112.363 38.0576L111.333 38.2605Z" fill="white"/>
<path d="M0.877441 8.69904V23.8286H5.25629V8.69904H2.99169H0.877441Z" fill="white"/>
<path d="M2.99173 0.244446C2.47198 0.244473 1.9639 0.398616 1.53175 0.687382C1.09959 0.976149 0.762761 1.38657 0.563848 1.86676C0.364934 2.34695 0.31287 2.87533 0.414237 3.3851C0.515604 3.89488 0.76585 4.36315 1.13333 4.73071C1.50082 5.09827 1.96904 5.34861 2.47879 5.45008C2.98855 5.55155 3.51694 5.4996 3.99717 5.30078C4.4774 5.10197 4.88789 4.76522 5.17674 4.33312C5.4656 3.90103 5.61984 3.39298 5.61998 2.87323C5.62002 2.52804 5.55207 2.18623 5.42 1.86731C5.28794 1.54839 5.09436 1.25861 4.8503 1.0145C4.60625 0.770396 4.3165 0.576752 3.99761 0.444626C3.67871 0.312499 3.33692 0.244478 2.99173 0.244446Z" fill="white"/>
<path d="M17.1734 8.40082C16.2356 8.33692 15.3028 8.58199 14.5176 9.09855C13.7323 9.61511 13.138 10.3747 12.8254 11.2611H12.766V8.69924H8.62598V23.8293H13.0046V15.6981C12.947 14.7763 13.1209 13.8548 13.5106 13.0174C13.6866 12.679 13.9514 12.395 14.2767 12.1957C14.6019 11.9965 14.9752 11.8896 15.3566 11.8865C17.5612 11.8865 17.3529 14.1502 17.3529 15.6981V23.8293H21.7301V14.4772C21.7301 13.1075 21.7301 11.2014 20.8967 10.0691C20.4562 9.5118 19.8877 9.06914 19.2394 8.77871C18.5912 8.48828 17.8824 8.35861 17.1734 8.40082Z" fill="white"/>
<path d="M30.3828 18.1703V12.1537H33.6291V8.66997H30.3828V3.93396L26.5709 4.23152L26.1833 8.66997H23.5332V12.1537H26.0047V18.8256C26.0047 20.3153 26.0047 22.1308 27.2257 23.1428C28.3903 23.8728 29.7555 24.2171 31.127 24.1269C31.9465 24.0951 32.7627 24.0053 33.5695 23.8582L33.8672 23.799V20.4934L32.4973 20.553C30.3828 20.6426 30.3828 19.9277 30.3828 18.1703Z" fill="white"/>
<path d="M43.1388 11.261C45.0451 11.261 45.5808 12.7796 45.6701 14.4169H40.3093C40.4586 12.6904 41.2032 11.261 43.1388 11.261ZM50.0488 17.009C50.1855 14.9179 49.642 12.8386 48.4995 11.0819C47.8467 10.2368 47.0066 9.55475 46.0455 9.0895C45.0843 8.62425 44.0282 8.38847 42.9604 8.40072C38.2548 8.40072 35.604 12.0053 35.604 16.4723C35.604 20.9694 38.5523 24.1267 43.0794 24.1267C44.6483 24.1712 46.1853 23.6788 47.4363 22.7311C48.6873 21.7833 49.5774 20.4369 49.9593 18.9146L45.9091 18.6166C45.8593 19.2842 45.5517 19.9062 45.0513 20.3509C44.5509 20.7957 43.897 21.0282 43.2282 20.9993C42.8158 21.0015 42.4077 20.9163 42.0306 20.7495C41.6534 20.5826 41.3159 20.3378 41.0402 20.0311C40.7645 19.7245 40.5568 19.3629 40.4308 18.9703C40.3048 18.5776 40.2634 18.1627 40.3093 17.7529L40.3396 17.009H50.0488Z" fill="white"/>
<path d="M56.8972 11.5285H56.8374V8.69955H52.7573V23.8295H57.1354V18.0511C57.1354 15.3713 57.552 12.6603 60.888 12.8398V8.46216L60.1436 8.40105C58.2374 8.25177 57.3441 9.92091 56.8972 11.5285Z" fill="white"/>
<path d="M74.7598 11.5V8.70038H63.6361V11.8484H70.0558L62.917 20.7379V23.83H75.057V20.5828H67.4497L74.7598 11.5Z" fill="#009DD3"/>
<path d="M84.0038 11.2613C85.9094 11.2613 86.4463 12.7798 86.5353 14.4171H81.1749C81.3241 12.6907 82.0679 11.2613 84.0038 11.2613ZM90.9127 17.0092C91.0499 14.9183 90.5069 12.839 89.3649 11.0821C88.712 10.237 87.8718 9.55498 86.9105 9.08973C85.9493 8.62448 84.8931 8.38871 83.8253 8.40097C79.12 8.40097 76.4688 12.0055 76.4688 16.4725C76.4688 20.9696 79.4172 24.127 83.9447 24.127C85.5135 24.1714 87.0504 23.679 88.3013 22.7312C89.5522 21.7835 90.4422 20.4371 90.824 18.9149L86.7732 18.6168C86.7236 19.2844 86.4161 19.9064 85.9158 20.3512C85.4155 20.7959 84.7617 21.0285 84.093 20.9995C83.6806 21.0017 83.2725 20.9165 82.8955 20.7496C82.5184 20.5827 82.181 20.3379 81.9053 20.0312C81.6297 19.7246 81.4221 19.363 81.2962 18.9704C81.1703 18.5778 81.129 18.1629 81.1749 17.7531L81.2047 17.0092H90.9127Z" fill="#009DD3"/>
<path d="M97.7606 11.5284H97.7014V8.69949H93.6211V23.8294H97.9984V18.051C97.9984 15.3713 98.4159 12.6603 101.752 12.8398V8.4621L101.007 8.40099C99.101 8.25171 98.2074 9.92085 97.7606 11.5284Z" fill="#009DD3"/>
<path d="M110.133 21.2082C107.632 21.2082 107.662 17.515 107.662 15.7872C107.662 14.0592 107.811 11.2899 110.163 11.2899C110.615 11.244 111.069 11.3551 111.449 11.6046C111.828 11.8542 112.11 12.2269 112.247 12.6601C112.614 13.8759 112.776 15.1445 112.725 16.4134C112.725 18.23 112.606 21.2082 110.133 21.2082ZM110.133 8.40076C105.518 8.40076 102.956 11.8263 102.956 16.2344C102.956 20.6127 105.487 24.1268 110.133 24.1268C114.601 24.1268 117.43 20.7017 117.43 16.3832C117.43 11.9158 114.869 8.40076 110.133 8.40076Z" fill="#009DD3"/>
<path d="M119.455 2.71151H120.038C120.534 2.71151 120.672 2.89992 120.672 3.10546C120.672 3.4482 120.397 3.63662 119.986 3.63662H119.455V2.71151ZM118.444 1.99193V5.77823H119.455V4.40758H120.055L120.654 5.77823H121.717L121.014 4.1335C121.225 4.06448 121.408 3.9284 121.535 3.74595C121.662 3.5635 121.726 3.34465 121.717 3.12266C121.717 2.36888 121.134 1.99193 120.295 1.99193H118.444ZM117.211 3.8936C117.208 3.52509 117.278 3.15966 117.417 2.81839C117.556 2.47712 117.762 2.16674 118.021 1.90516C118.281 1.64358 118.589 1.43597 118.93 1.29429C119.27 1.15262 119.635 1.07967 120.003 1.07967C120.372 1.07967 120.737 1.15262 121.077 1.29429C121.417 1.43597 121.726 1.64358 121.985 1.90516C122.245 2.16674 122.45 2.47712 122.589 2.81839C122.728 3.15966 122.799 3.52509 122.796 3.8936C122.796 4.63422 122.502 5.3445 121.978 5.8682C121.454 6.39189 120.744 6.6861 120.003 6.6861C119.263 6.6861 118.552 6.39189 118.029 5.8682C117.505 5.3445 117.211 4.63422 117.211 3.8936ZM120.003 0.244469C119.523 0.237992 119.046 0.328083 118.602 0.509391C118.157 0.690699 117.753 0.959527 117.415 1.29991C117.076 1.64029 116.809 2.04529 116.63 2.49084C116.45 2.9364 116.362 3.41343 116.371 3.8936C116.373 4.85577 116.756 5.77794 117.437 6.45768C118.118 7.13743 119.041 7.5192 120.003 7.5192C120.965 7.5192 121.888 7.13743 122.569 6.45768C123.25 5.77794 123.634 4.85577 123.635 3.8936C123.644 3.41342 123.556 2.93638 123.377 2.49082C123.198 2.04525 122.931 1.64024 122.592 1.29986C122.253 0.959469 121.85 0.690641 121.405 0.509342C120.96 0.328042 120.484 0.237968 120.003 0.244469Z" fill="#009DD3"/>
</svg>
