<svg width="16" height="16" viewBox="0 0 16 16" fill="none" xmlns="http://www.w3.org/2000/svg">
<path d="M2.28362 13.5318C2.17062 13.5318 2.06913 13.5042 1.97917 13.449C1.8892 13.3937 1.81923 13.3209 1.76925 13.2305C1.71726 13.1408 1.68867 13.0436 1.68347 12.9389C1.67827 12.8342 1.70652 12.7305 1.76822 12.6278L7.47538 2.76926C7.53708 2.66657 7.6143 2.59065 7.70703 2.54151C7.79977 2.49235 7.89742 2.46777 7.99998 2.46777C8.10255 2.46777 8.2002 2.49235 8.29293 2.54151C8.38567 2.59065 8.46288 2.66657 8.52458 2.76926L14.2318 12.6278C14.2935 12.7305 14.3217 12.8342 14.3165 12.9389C14.3113 13.0436 14.2827 13.1408 14.2307 13.2305C14.1807 13.3209 14.1108 13.3937 14.0208 13.449C13.9308 13.5042 13.8294 13.5318 13.7164 13.5318H2.28362ZM2.96665 12.5318H13.0333L7.99998 3.86517L2.96665 12.5318ZM7.99998 11.737C8.15255 11.737 8.28043 11.6854 8.38363 11.5822C8.48684 11.479 8.53843 11.3511 8.53843 11.1985C8.53843 11.0459 8.48684 10.9181 8.38363 10.8149C8.28043 10.7117 8.15255 10.6601 7.99998 10.6601C7.84742 10.6601 7.71953 10.7117 7.61633 10.8149C7.51313 10.9181 7.46153 11.0459 7.46153 11.1985C7.46153 11.3511 7.51313 11.479 7.61633 11.5822C7.71953 11.6854 7.84742 11.737 7.99998 11.737ZM8.0002 9.99339C8.14193 9.99339 8.26066 9.94547 8.35638 9.84964C8.45211 9.75381 8.49997 9.63506 8.49997 9.49341V7.16004C8.49997 7.01837 8.45203 6.89963 8.35617 6.80381C8.26029 6.70797 8.14149 6.66006 7.99977 6.66006C7.85803 6.66006 7.73931 6.70797 7.64358 6.80381C7.54786 6.89963 7.5 7.01837 7.5 7.16004V9.49341C7.5 9.63506 7.54793 9.75381 7.6438 9.84964C7.73968 9.94547 7.85848 9.99339 8.0002 9.99339Z" fill="currentColor"/>
</svg>
