<svg width="16" height="16" viewBox="0 0 16 16" fill="none" xmlns="http://www.w3.org/2000/svg">
<path d="M8.00006 11.1541C8.15263 11.1541 8.28052 11.1025 8.38372 10.9993C8.48692 10.8961 8.53852 10.7682 8.53852 10.6157C8.53852 10.4631 8.48692 10.3352 8.38372 10.232C8.28052 10.1288 8.15263 10.0772 8.00006 10.0772C7.8475 10.0772 7.71961 10.1288 7.61642 10.232C7.51322 10.3352 7.46162 10.4631 7.46162 10.6157C7.46162 10.7682 7.51322 10.8961 7.61642 10.9993C7.71961 11.1025 7.8475 11.1541 8.00006 11.1541ZM8.00028 8.71826C8.14201 8.71826 8.26074 8.67034 8.35647 8.57451C8.45219 8.47869 8.50005 8.35994 8.50005 8.21828V5.21824C8.50005 5.07659 8.45212 4.95784 8.35625 4.86201C8.26037 4.76618 8.14157 4.71826 7.99985 4.71826C7.85812 4.71826 7.73939 4.76618 7.64367 4.86201C7.54794 4.95784 7.50008 5.07659 7.50008 5.21824V8.21828C7.50008 8.35994 7.54802 8.47869 7.64388 8.57451C7.73976 8.67034 7.85856 8.71826 8.00028 8.71826ZM8.00118 14.3336C7.12523 14.3336 6.30187 14.1674 5.53112 13.835C4.76035 13.5025 4.08989 13.0513 3.51975 12.4815C2.94959 11.9116 2.49822 11.2414 2.16563 10.471C1.83304 9.70057 1.66675 8.87738 1.66675 8.00143C1.66675 7.12547 1.83297 6.30211 2.16541 5.53136C2.49786 4.76059 2.94903 4.09014 3.51891 3.51999C4.08881 2.94984 4.75898 2.49847 5.5294 2.16588C6.29981 1.83329 7.12299 1.66699 7.99895 1.66699C8.8749 1.66699 9.69826 1.83322 10.469 2.16566C11.2398 2.4981 11.9102 2.94927 12.4804 3.51916C13.0505 4.08906 13.5019 4.75922 13.8345 5.52964C14.1671 6.30005 14.3334 7.12324 14.3334 7.99919C14.3334 8.87515 14.1672 9.6985 13.8347 10.4693C13.5023 11.24 13.0511 11.9105 12.4812 12.4806C11.9113 13.0508 11.2412 13.5022 10.4707 13.8347C9.70032 14.1673 8.87714 14.3336 8.00118 14.3336ZM8.00006 13.3336C9.48895 13.3336 10.7501 12.817 11.7834 11.7836C12.8167 10.7503 13.3334 9.4892 13.3334 8.00031C13.3334 6.51142 12.8167 5.25031 11.7834 4.21698C10.7501 3.18364 9.48895 2.66698 8.00006 2.66698C6.51118 2.66698 5.25007 3.18364 4.21673 4.21698C3.1834 5.25031 2.66673 6.51142 2.66673 8.00031C2.66673 9.4892 3.1834 10.7503 4.21673 11.7836C5.25007 12.817 6.51118 13.3336 8.00006 13.3336Z" fill="currentColor"/>
</svg>
