<svg width="22" height="14" viewBox="0 0 22 14" fill="none" xmlns="http://www.w3.org/2000/svg">
<path id="Vector" d="M11.0023 11.0769C12.1354 11.0769 13.0978 10.6803 13.8895 9.88713C14.6811 9.09394 15.077 8.1308 15.077 6.9977C15.077 5.86462 14.6804 4.90224 13.8872 4.11058C13.094 3.31891 12.1309 2.92308 10.9978 2.92308C9.8647 2.92308 8.90233 3.31966 8.11066 4.11282C7.31899 4.90601 6.92316 5.86915 6.92316 7.00225C6.92316 8.13533 7.31974 9.09771 8.11291 9.88938C8.90609 10.681 9.86924 11.0769 11.0023 11.0769ZM11.0001 9.69998C10.2501 9.69998 9.61256 9.43748 9.08756 8.91248C8.56256 8.38748 8.30006 7.74998 8.30006 6.99998C8.30006 6.24998 8.56256 5.61248 9.08756 5.08748C9.61256 4.56248 10.2501 4.29998 11.0001 4.29998C11.7501 4.29998 12.3876 4.56248 12.9126 5.08748C13.4376 5.61248 13.7001 6.24998 13.7001 6.99998C13.7001 7.74998 13.4376 8.38748 12.9126 8.91248C12.3876 9.43748 11.7501 9.69998 11.0001 9.69998ZM11.0001 14C8.81161 14 6.80553 13.4243 4.98181 12.273C3.15811 11.1217 1.76741 9.56534 0.809711 7.60383C0.766128 7.52689 0.736003 7.43533 0.719336 7.32915C0.702669 7.22297 0.694336 7.11324 0.694336 6.99998C0.694336 6.88671 0.702669 6.77698 0.719336 6.6708C0.736003 6.56462 0.766128 6.47306 0.809711 6.39613C1.76741 4.43461 3.15811 2.87821 4.98181 1.72693C6.80553 0.575642 8.81161 0 11.0001 0C13.1885 0 15.1946 0.575642 17.0183 1.72693C18.842 2.87821 20.2327 4.43461 21.1904 6.39613C21.234 6.47306 21.2641 6.56462 21.2808 6.6708C21.2975 6.77698 21.3058 6.88671 21.3058 6.99998C21.3058 7.11324 21.2975 7.22297 21.2808 7.32915C21.2641 7.43533 21.234 7.52689 21.1904 7.60383C20.2327 9.56534 18.842 11.1217 17.0183 12.273C15.1946 13.4243 13.1885 14 11.0001 14ZM11.0001 12.5C12.8834 12.5 14.6126 12.0041 16.1876 11.0125C17.7626 10.0208 18.9667 8.68331 19.8001 6.99998C18.9667 5.31664 17.7626 3.97914 16.1876 2.98748C14.6126 1.99581 12.8834 1.49998 11.0001 1.49998C9.11673 1.49998 7.38756 1.99581 5.81256 2.98748C4.23756 3.97914 3.03339 5.31664 2.20006 6.99998C3.03339 8.68331 4.23756 10.0208 5.81256 11.0125C7.38756 12.0041 9.11673 12.5 11.0001 12.5Z" fill="currentColor"/>
</svg>
