<svg width="16" height="16" viewBox="0 0 16 16" fill="none" xmlns="http://www.w3.org/2000/svg">
<path stroke="none" d="M1.05856 12.0609C0.801371 12.0609 0.61863 11.9797 0.510339 11.8173C0.402048 11.6548 0.39528 11.4585 0.490034 11.2284L3.19054 4.52792C3.25822 4.36548 3.37667 4.22673 3.54587 4.11168C3.71508 3.99662 3.89443 3.93909 4.08394 3.93909C4.25992 3.93909 4.4325 3.99662 4.60171 4.11168C4.77091 4.22673 4.88936 4.36548 4.95704 4.52792L7.63724 11.2284C7.732 11.4585 7.72523 11.6548 7.61694 11.8173C7.50865 11.9797 7.32591 12.0609 7.06872 12.0609C6.96042 12.0609 6.86229 12.0271 6.7743 11.9594C6.68631 11.8917 6.62201 11.8105 6.58141 11.7157L5.93166 10.0508H2.19562L1.54587 11.7157C1.50526 11.8105 1.44096 11.8917 1.35298 11.9594C1.26499 12.0271 1.16685 12.0609 1.05856 12.0609ZM2.60171 8.99492H5.52557L4.10425 5.23858H4.02303L2.60171 8.99492ZM10.5002 12.0609C10.2701 12.0609 10.0704 11.9763 9.9012 11.8071C9.732 11.6379 9.6474 11.4382 9.6474 11.2081C9.6474 11.0998 9.67108 10.9746 9.71846 10.8325C9.76584 10.6904 9.82337 10.5787 9.89105 10.4975L14.3784 4.99492H10.5408C10.3919 4.99492 10.2667 4.94416 10.1652 4.84264C10.0636 4.74112 10.0129 4.6159 10.0129 4.467C10.0129 4.3181 10.0636 4.19289 10.1652 4.09137C10.2667 3.98985 10.3919 3.93909 10.5408 3.93909H14.6829C14.913 3.93909 15.1127 4.02369 15.2819 4.19289C15.4511 4.3621 15.5357 4.56853 15.5357 4.81218C15.5357 4.92047 15.5086 5.04569 15.4545 5.18782C15.4004 5.32995 15.3394 5.44839 15.2718 5.54315L10.8454 11.0051H15.0484C15.1973 11.0051 15.3225 11.0558 15.424 11.1574C15.5256 11.2589 15.5763 11.3841 15.5763 11.533C15.5763 11.6819 15.5256 11.8071 15.424 11.9086C15.3225 12.0102 15.1973 12.0609 15.0484 12.0609H10.5002Z" fill="currentColor"/>

  <path stroke="none" d="M8.26668 16C8.23961 16 8.16516 15.9662 8.04333 15.8985L6.84536 14.7005C6.75061 14.6058 6.72692 14.4941 6.7743 14.3655C6.82168 14.2369 6.91305 14.1726 7.04841 14.1726H9.48496C9.62032 14.1726 9.71169 14.2369 9.75907 14.3655C9.80645 14.4941 9.78276 14.6058 9.688 14.7005L8.49004 15.8985C8.4765 15.912 8.40205 15.9459 8.26668 16Z" fill="currentColor"/>
</svg>
