<svg width="20" height="20" viewBox="0 0 20 20" fill="none" xmlns="http://www.w3.org/2000/svg">
<path d="M9.99998 11.0538L13.0731 14.1269C13.2115 14.2653 13.3856 14.3362 13.5952 14.3394C13.8048 14.3426 13.982 14.2718 14.1269 14.1269C14.2718 13.982 14.3442 13.8064 14.3442 13.6C14.3442 13.3936 14.2718 13.2179 14.1269 13.0731L11.0538 9.99998L14.1269 6.92688C14.2653 6.78843 14.3362 6.61439 14.3394 6.40478C14.3426 6.19518 14.2718 6.01794 14.1269 5.87308C13.982 5.72819 13.8064 5.65575 13.6 5.65575C13.3936 5.65575 13.2179 5.72819 13.0731 5.87308L9.99998 8.94615L6.92688 5.87308C6.78842 5.73461 6.61439 5.66378 6.40478 5.66058C6.19518 5.65736 6.01794 5.72819 5.87308 5.87308C5.72819 6.01794 5.65575 6.19358 5.65575 6.39998C5.65575 6.60638 5.72819 6.78201 5.87308 6.92688L8.94615 9.99998L5.87308 13.0731C5.73461 13.2115 5.66378 13.3856 5.66058 13.5952C5.65736 13.8048 5.72819 13.982 5.87308 14.1269C6.01794 14.2718 6.19358 14.3442 6.39998 14.3442C6.60638 14.3442 6.78201 14.2718 6.92688 14.1269L9.99998 11.0538ZM10.0016 19.5C8.68772 19.5 7.45268 19.2506 6.29655 18.752C5.1404 18.2533 4.13472 17.5765 3.2795 16.7217C2.42427 15.8669 1.74721 14.8616 1.24833 13.706C0.749442 12.5504 0.5 11.3156 0.5 10.0017C0.5 8.68772 0.749334 7.45268 1.248 6.29655C1.74667 5.1404 2.42342 4.13472 3.27825 3.2795C4.1331 2.42427 5.13834 1.74721 6.29398 1.24833C7.44959 0.749443 8.68437 0.5 9.9983 0.5C11.3122 0.5 12.5473 0.749334 13.7034 1.248C14.8596 1.74667 15.8652 2.42342 16.7205 3.27825C17.5757 4.1331 18.2527 5.13834 18.7516 6.29398C19.2505 7.44959 19.5 8.68437 19.5 9.9983C19.5 11.3122 19.2506 12.5473 18.752 13.7034C18.2533 14.8596 17.5765 15.8652 16.7217 16.7205C15.8669 17.5757 14.8616 18.2527 13.706 18.7516C12.5504 19.2505 11.3156 19.5 10.0016 19.5Z" fill="currentColor"/>
</svg>
