<svg width="8" height="5" viewBox="0 0 8 5" fill="none" xmlns="http://www.w3.org/2000/svg">
<path d="M3.52009 4.17398L0.36896 1.02288C0.325493 0.979409 0.29126 0.930875 0.26626 0.877275C0.24126 0.823658 0.22876 0.766217 0.22876 0.70495C0.22876 0.582417 0.270193 0.475959 0.35306 0.385576C0.43591 0.295193 0.545118 0.25 0.680685 0.25H7.31909C7.45465 0.25 7.56386 0.295626 7.64671 0.386876C7.72958 0.478143 7.77101 0.584609 7.77101 0.706276C7.77101 0.736709 7.72421 0.842309 7.63061 1.02308L4.47968 4.174C4.40725 4.24643 4.33238 4.29932 4.25506 4.33265C4.17773 4.36598 4.09267 4.38265 3.99988 4.38265C3.9071 4.38265 3.82204 4.36598 3.74471 4.33265C3.66739 4.29932 3.59252 4.24643 3.52009 4.17398Z" fill="currentColor"/>
</svg>
