<svg width="14" height="14" viewBox="0 0 14 14" fill="none" xmlns="http://www.w3.org/2000/svg">
<path d="M6.99999 8.0543L1.92689 13.1274C1.78844 13.2658 1.6144 13.3367 1.40479 13.3399C1.19519 13.3431 1.01795 13.2723 0.873087 13.1274C0.728203 12.9825 0.655762 12.8069 0.655762 12.6005C0.655762 12.3941 0.728203 12.2184 0.873087 12.0736L5.94616 7.00047L0.873087 1.92737C0.73462 1.78892 0.663787 1.61489 0.660587 1.40527C0.65737 1.19567 0.728203 1.01844 0.873087 0.873575C1.01795 0.728691 1.19359 0.65625 1.39999 0.65625C1.60639 0.65625 1.78202 0.728691 1.92689 0.873575L6.99999 5.94665L12.0731 0.873575C12.2115 0.735108 12.3856 0.664275 12.5952 0.661075C12.8048 0.657858 12.982 0.728691 13.1269 0.873575C13.2718 1.01844 13.3442 1.19407 13.3442 1.40047C13.3442 1.60687 13.2718 1.78251 13.1269 1.92737L8.05381 7.00047L13.1269 12.0736C13.2654 12.212 13.3362 12.3861 13.3394 12.5957C13.3426 12.8053 13.2718 12.9825 13.1269 13.1274C12.982 13.2723 12.8064 13.3447 12.6 13.3447C12.3936 13.3447 12.218 13.2723 12.0731 13.1274L6.99999 8.0543Z" fill="currentColor"/>
</svg>
