<svg width="19" height="22" viewBox="0 0 19 22" fill="none" xmlns="http://www.w3.org/2000/svg">
<path d="M16.6923 17.5H6.3077C5.80257 17.5 5.375 17.325 5.025 16.975C4.675 16.625 4.5 16.1974 4.5 15.6923V2.3077C4.5 1.80257 4.675 1.375 5.025 1.025C5.375 0.675 5.80257 0.5 6.3077 0.5H12.5019C12.7429 0.5 12.9747 0.546801 13.1971 0.640401C13.4195 0.733984 13.6128 0.862826 13.7769 1.02693L17.973 5.22303C18.1371 5.38714 18.266 5.58042 18.3596 5.80285C18.4532 6.02528 18.5 6.25701 18.5 6.49803V15.6923C18.5 16.1974 18.325 16.625 17.975 16.975C17.625 17.325 17.1974 17.5 16.6923 17.5ZM17 6.49995H13.7115C13.3718 6.49995 13.0849 6.38296 12.851 6.14898C12.617 5.91501 12.5 5.62816 12.5 5.28843V1.99998H6.3077C6.23077 1.99998 6.16024 2.03203 6.09613 2.09613C6.03203 2.16024 5.99998 2.23077 5.99998 2.3077V15.6923C5.99998 15.7692 6.03203 15.8397 6.09613 15.9038C6.16024 15.9679 6.23077 16 6.3077 16H16.6923C16.7692 16 16.8397 15.9679 16.9038 15.9038C16.9679 15.8397 17 15.7692 17 15.6923V6.49995ZM2.3077 21.5C1.80257 21.5 1.375 21.325 1.025 20.975C0.675 20.625 0.5 20.1974 0.5 19.6923V7.25C0.5 7.03718 0.5718 6.85898 0.7154 6.7154C0.858983 6.5718 1.03718 6.5 1.25 6.5C1.46282 6.5 1.64102 6.5718 1.7846 6.7154C1.92818 6.85898 1.99998 7.03718 1.99998 7.25V19.6923C1.99998 19.7692 2.03202 19.8397 2.09613 19.9038C2.16024 19.9679 2.23077 20 2.3077 20H11.75C11.9628 20 12.141 20.0718 12.2846 20.2154C12.4282 20.3589 12.5 20.5371 12.5 20.75C12.5 20.9628 12.4282 21.141 12.2846 21.2846C12.141 21.4282 11.9628 21.5 11.75 21.5L2.3077 21.5Z" fill="currentColor"/>
</svg>
