<svg width="17" height="18" viewBox="0 0 17 18" fill="none" xmlns="http://www.w3.org/2000/svg">
<path d="M11 17.75C10.7872 17.75 10.609 17.6782 10.4654 17.5346C10.3218 17.391 10.25 17.2128 10.25 17C10.25 16.7872 10.3218 16.609 10.4654 16.4654C10.609 16.3218 10.7872 16.25 11 16.25C11.8666 16.25 12.625 16.0766 13.275 15.7298C13.925 15.383 14.25 14.9731 14.25 14.5C14.25 14.1705 14.0936 13.8705 13.7807 13.6C13.4679 13.3294 13.0301 13.1012 12.4672 12.9153L13.5961 11.7961C14.2769 12.0936 14.806 12.4686 15.1836 12.9211C15.5612 13.3737 15.75 13.9 15.75 14.5C15.75 15.523 15.2506 16.3205 14.2519 16.8923C13.2532 17.4641 12.1692 17.75 11 17.75ZM2.1327 10.3019C1.52757 10.025 1.0625 9.6958 0.7375 9.3144C0.4125 8.93298 0.25 8.49484 0.25 7.99998C0.25 7.37049 0.495508 6.83268 0.986525 6.38653C1.47756 5.94038 2.3673 5.43525 3.65575 4.87115C4.72498 4.38782 5.42467 4.02788 5.7548 3.79133C6.08493 3.55479 6.25 3.29101 6.25 2.99998C6.25 2.66279 6.05865 2.37016 5.67595 2.12208C5.29325 1.87399 4.73459 1.74995 3.99997 1.74995C3.55766 1.74995 3.1724 1.80957 2.8442 1.9288C2.51598 2.04803 2.22559 2.23393 1.97302 2.4865C1.83457 2.62497 1.66727 2.70606 1.47112 2.72978C1.27497 2.75349 1.09421 2.69933 0.928825 2.56728C0.763442 2.43908 0.668891 2.27529 0.645175 2.07593C0.621458 1.87658 0.678833 1.69421 0.8173 1.52883C1.10192 1.17114 1.53204 0.868584 2.10767 0.62115C2.68331 0.373717 3.31407 0.25 3.99997 0.25C5.11664 0.25 6.0208 0.503201 6.71245 1.0096C7.40412 1.51602 7.74995 2.17948 7.74995 2.99998C7.74995 3.60509 7.5147 4.14836 7.0442 4.62978C6.57368 5.11118 5.64356 5.64932 4.25382 6.2442C3.25509 6.67368 2.5881 7.01086 2.25285 7.25573C1.91758 7.50061 1.74995 7.74869 1.74995 7.99998C1.74995 8.21408 1.87944 8.42081 2.13842 8.62018C2.39741 8.81954 2.7737 9.00513 3.2673 9.17693L2.1327 10.3019ZM15.5327 6.7557L12.1193 3.3423L13.0827 2.37885C13.4122 2.04937 13.7984 1.88302 14.2413 1.8798C14.6843 1.8766 15.0654 2.03974 15.3846 2.36923L16.5057 3.49035C16.8352 3.80958 16.9983 4.19067 16.9951 4.6336C16.9919 5.07655 16.8256 5.46277 16.4961 5.79225L15.5327 6.7557ZM2.91342 15.9615H4.18842L11.85 8.29995L10.575 7.02495L2.91342 14.6865V15.9615ZM1.875 17.4615C1.74808 17.4615 1.63943 17.4163 1.54905 17.3259C1.45867 17.2355 1.41347 17.1269 1.41347 17V14.2385C1.41347 14.2115 1.46027 14.1013 1.55385 13.9077L10.575 4.88655L13.9884 8.29995L4.96725 17.3211C4.94033 17.348 4.83007 17.3948 4.63647 17.4615H1.875Z" fill="currentColor"/>
</svg>
