<svg width="15" height="16" viewBox="0 0 15 16" fill="none" xmlns="http://www.w3.org/2000/svg">
<path d="M7.49997 11.4115C7.37946 11.4115 7.26728 11.3923 7.16345 11.3538C7.0596 11.3154 6.96088 11.2493 6.8673 11.1557L3.7577 8.04615C3.60898 7.89743 3.53559 7.7234 3.53753 7.52405C3.53944 7.3247 3.61283 7.14746 3.7577 6.99232C3.91283 6.83721 4.09103 6.75708 4.2923 6.75195C4.49358 6.74682 4.67179 6.82182 4.82692 6.97695L6.75 8.90003V1.25C6.75 1.03718 6.82179 0.858984 6.96537 0.715401C7.10896 0.571801 7.28716 0.5 7.49997 0.5C7.71279 0.5 7.89099 0.571801 8.03458 0.715401C8.17816 0.858984 8.24995 1.03718 8.24995 1.25V8.90003L10.173 6.97695C10.3217 6.82823 10.4983 6.75483 10.7028 6.75675C10.9073 6.75868 11.0871 6.83721 11.2422 6.99232C11.3871 7.14746 11.4621 7.3231 11.4672 7.51925C11.4724 7.7154 11.3974 7.89103 11.2422 8.04615L8.13265 11.1557C8.03907 11.2493 7.94035 11.3154 7.8365 11.3538C7.73267 11.3923 7.62049 11.4115 7.49997 11.4115ZM1.8077 15.5C1.30257 15.5 0.875 15.325 0.525 14.975C0.175 14.625 0 14.1974 0 13.6923V11.7307C0 11.5179 0.0717999 11.3397 0.2154 11.1961C0.358983 11.0525 0.537183 10.9808 0.75 10.9808C0.962817 10.9808 1.14102 11.0525 1.2846 11.1961C1.42818 11.3397 1.49997 11.5179 1.49997 11.7307V13.6923C1.49997 13.7692 1.53202 13.8397 1.59612 13.9038C1.66024 13.9679 1.73077 14 1.8077 14H13.1922C13.2692 14 13.3397 13.9679 13.4038 13.9038C13.4679 13.8397 13.5 13.7692 13.5 13.6923V11.7307C13.5 11.5179 13.5718 11.3397 13.7154 11.1961C13.8589 11.0525 14.0371 10.9808 14.25 10.9808C14.4628 10.9808 14.641 11.0525 14.7845 11.1961C14.9281 11.3397 15 11.5179 15 11.7307V13.6923C15 14.1974 14.825 14.625 14.475 14.975C14.125 15.325 13.6974 15.5 13.1922 15.5H1.8077Z" fill="currentColor"/>
</svg>
