<svg width="22" height="20" viewBox="0 0 22 20" fill="none" xmlns="http://www.w3.org/2000/svg">
<path d="M14.7731 10.4456L13.6501 9.32255C13.8001 8.49433 13.5638 7.74978 12.9414 7.0889C12.319 6.428 11.5552 6.17255 10.6501 6.32255L9.52701 5.1995C9.75264 5.09821 9.98405 5.02226 10.2212 4.97162C10.4584 4.92097 10.718 4.89565 11.0001 4.89565C12.1347 4.89565 13.0978 5.29148 13.8895 6.08315C14.6811 6.87481 15.077 7.83795 15.077 8.97255C15.077 9.2546 15.0516 9.51741 15.001 9.761C14.9504 10.0046 14.8744 10.2328 14.7731 10.4456ZM17.9539 13.5571L16.8501 12.5225C17.4834 12.0392 18.0459 11.51 18.5376 10.935C19.0292 10.36 19.4501 9.70588 19.8001 8.97255C18.9667 7.28921 17.7709 5.95171 16.2126 4.96005C14.6542 3.96838 12.9167 3.47255 11.0001 3.47255C10.5167 3.47255 10.0417 3.50588 9.57506 3.57255C9.10839 3.63921 8.65006 3.73921 8.20006 3.87255L7.03471 2.7072C7.66676 2.45591 8.31227 2.27066 8.97124 2.15142C9.6302 2.03219 10.3065 1.97257 11.0001 1.97257C13.2231 1.97257 15.2462 2.56167 17.0693 3.73987C18.8923 4.91807 20.266 6.46101 21.1904 8.3687C21.234 8.44563 21.2641 8.53698 21.2808 8.64275C21.2975 8.74851 21.3058 8.85845 21.3058 8.97255C21.3058 9.08665 21.2949 9.19658 21.2731 9.30235C21.2513 9.40811 21.2237 9.49946 21.1904 9.5764C20.8199 10.3559 20.3632 11.0799 19.8202 11.7485C19.2773 12.4171 18.6552 13.02 17.9539 13.5571ZM18.2347 18.8148L14.7155 15.3263C14.2026 15.5161 13.6344 15.6712 13.0107 15.7917C12.3869 15.9123 11.7167 15.9725 11.0001 15.9725C8.76418 15.9725 6.7395 15.3834 4.92604 14.2052C3.11259 13.027 1.74048 11.4841 0.809711 9.5764C0.766128 9.49946 0.736003 9.40811 0.719336 9.30235C0.702669 9.19658 0.694336 9.08665 0.694336 8.97255C0.694336 8.85845 0.702669 8.75108 0.719336 8.65045C0.736003 8.5498 0.766128 8.46101 0.809711 8.3841C1.18536 7.61486 1.64049 6.90396 2.17511 6.2514C2.70973 5.59883 3.28473 5.0187 3.90011 4.51102L1.64241 2.23792C1.50394 2.09945 1.43311 1.92799 1.42991 1.72352C1.42671 1.51904 1.50267 1.33923 1.65779 1.1841C1.80265 1.03923 1.97829 0.966797 2.18471 0.966797C2.39111 0.966797 2.56674 1.03923 2.71161 1.1841L19.2885 17.761C19.427 17.8994 19.5004 18.0709 19.5087 18.2754C19.517 18.4799 19.4436 18.6597 19.2885 18.8148C19.1436 18.9597 18.968 19.0321 18.7616 19.0321C18.5552 19.0321 18.3796 18.9597 18.2347 18.8148ZM4.95394 5.56482C4.42574 5.98534 3.91195 6.4908 3.41259 7.0812C2.91322 7.67158 2.50904 8.30203 2.20006 8.97255C3.03339 10.6559 4.22923 11.9934 5.78756 12.985C7.34589 13.9767 9.08339 14.4725 11.0001 14.4725C11.4552 14.4725 11.9084 14.4341 12.3597 14.3571C12.811 14.2802 13.1937 14.2007 13.5078 14.1187L12.2424 12.8225C12.0719 12.8917 11.8744 12.9469 11.6501 12.9879C11.4257 13.0289 11.209 13.0494 11.0001 13.0494C9.86546 13.0494 8.90233 12.6536 8.11066 11.8619C7.31899 11.0703 6.92316 10.1071 6.92316 8.97255C6.92316 8.76998 6.94368 8.55812 6.98471 8.33697C7.02574 8.11581 7.08087 7.91356 7.15009 7.73022L4.95394 5.56482Z" fill="currentColor"/>
</svg>
