<svg width="15" height="16" viewBox="0 0 15 16" fill="none" xmlns="http://www.w3.org/2000/svg">
<path d="M6.88476 15.5C6.63347 15.5 6.42322 15.4153 6.25398 15.2461C6.08475 15.0769 6.00013 14.8666 6.00013 14.6153V8.82688L0.402082 1.71538C0.209782 1.45896 0.181899 1.19229 0.318433 0.915376C0.454966 0.63846 0.685408 0.5 1.00976 0.5H13.9905C14.3148 0.5 14.5452 0.63846 14.6818 0.915376C14.8183 1.19229 14.7904 1.45896 14.5981 1.71538L9.00008 8.82688V14.6153C9.00008 14.8666 8.91547 15.0769 8.74623 15.2461C8.577 15.4153 8.36674 15.5 8.11546 15.5H6.88476ZM7.50011 8.29998L12.4501 1.99998H2.55011L7.50011 8.29998Z" fill="currentColor"/>
</svg>
