<svg width="17" height="18" viewBox="0 0 17 18" fill="none" xmlns="http://www.w3.org/2000/svg">
<path d="M1.8077 17.5C1.30898 17.5 0.883025 17.3233 0.529825 16.9701C0.176608 16.6169 0 16.191 0 15.6923V2.3077C0 1.80898 0.176608 1.38302 0.529825 1.02982C0.883025 0.676608 1.30898 0.5 1.8077 0.5H15.1923C15.691 0.5 16.1169 0.676608 16.4701 1.02982C16.8233 1.38302 17 1.80898 17 2.3077V15.6923C17 16.191 16.8233 16.6169 16.4701 16.9701C16.1169 17.3233 15.691 17.5 15.1923 17.5H1.8077ZM9.24995 9.74995V16H15.1923C15.282 16 15.3557 15.9711 15.4134 15.9134C15.4711 15.8557 15.5 15.782 15.5 15.6923V9.74995H9.24995ZM9.24995 8.25H15.5V2.3077C15.5 2.21795 15.4711 2.14423 15.4134 2.08653C15.3557 2.02883 15.282 1.99998 15.1923 1.99998H9.24995V8.25ZM7.75 8.25V1.99998H1.8077C1.71795 1.99998 1.64423 2.02883 1.58653 2.08653C1.52883 2.14423 1.49997 2.21795 1.49997 2.3077V8.25H7.75ZM7.75 9.74995H1.49997V15.6923C1.49997 15.782 1.52883 15.8557 1.58653 15.9134C1.64423 15.9711 1.71795 16 1.8077 16H7.75V9.74995Z" fill="currentColor"/>
</svg>
