<svg width="3" height="16" viewBox="0 0 3 16" fill="none" xmlns="http://www.w3.org/2000/svg">
<path d="M1.49997 15.2693C1.08749 15.2693 0.734375 15.1224 0.440625 14.8287C0.146875 14.535 0 14.1818 0 13.7694C0 13.3569 0.146875 13.0037 0.440625 12.71C0.734375 12.4163 1.08749 12.2694 1.49997 12.2694C1.91246 12.2694 2.26558 12.4163 2.55933 12.71C2.85308 13.0037 2.99995 13.3569 2.99995 13.7694C2.99995 14.1818 2.85308 14.535 2.55933 14.8287C2.26558 15.1224 1.91246 15.2693 1.49997 15.2693ZM1.49997 9.50011C1.08749 9.50011 0.734375 9.35323 0.440625 9.05948C0.146875 8.76573 0 8.41262 0 8.00013C0 7.58765 0.146875 7.23453 0.440625 6.94078C0.734375 6.64703 1.08749 6.50016 1.49997 6.50016C1.91246 6.50016 2.26558 6.64703 2.55933 6.94078C2.85308 7.23453 2.99995 7.58765 2.99995 8.00013C2.99995 8.41262 2.85308 8.76573 2.55933 9.05948C2.26558 9.35323 1.91246 9.50011 1.49997 9.50011ZM1.49997 3.73088C1.08749 3.73088 0.734375 3.58401 0.440625 3.29026C0.146875 2.99652 0 2.64341 0 2.23091C0 1.81842 0.146875 1.46531 0.440625 1.17156C0.734375 0.877824 1.08749 0.730957 1.49997 0.730957C1.91246 0.730957 2.26558 0.877824 2.55933 1.17156C2.85308 1.46531 2.99995 1.81842 2.99995 2.23091C2.99995 2.64341 2.85308 2.99652 2.55933 3.29026C2.26558 3.58401 1.91246 3.73088 1.49997 3.73088Z" fill="currentColor"/>
</svg>
