<svg width="20" height="20" viewBox="0 0 20 20" fill="none" xmlns="http://www.w3.org/2000/svg">
<path d="M9.25 10.75V14C9.25 14.2125 9.3219 14.3906 9.4657 14.5343C9.60952 14.6781 9.78772 14.75 10.0003 14.75C10.2129 14.75 10.391 14.6781 10.5346 14.5343C10.6782 14.3906 10.75 14.2125 10.75 14V10.75H14C14.2125 10.75 14.3906 10.6781 14.5344 10.5343C14.6781 10.3904 14.75 10.2122 14.75 9.99965C14.75 9.78705 14.6781 9.60896 14.5344 9.46538C14.3906 9.32179 14.2125 9.25 14 9.25H10.75V5.99998C10.75 5.78748 10.6781 5.60935 10.5343 5.4656C10.3904 5.32187 10.2122 5.25 9.99965 5.25C9.78705 5.25 9.60896 5.32187 9.46538 5.4656C9.32179 5.60935 9.25 5.78748 9.25 5.99998V9.25H5.99998C5.78748 9.25 5.60936 9.3219 5.46563 9.4657C5.32188 9.60952 5.25 9.78772 5.25 10.0003C5.25 10.2129 5.32188 10.391 5.46563 10.5346C5.60936 10.6782 5.78748 10.75 5.99998 10.75H9.25ZM10.0016 19.5C8.68772 19.5 7.45268 19.2506 6.29655 18.752C5.1404 18.2533 4.13472 17.5765 3.2795 16.7217C2.42427 15.8669 1.74721 14.8616 1.24833 13.706C0.749442 12.5504 0.5 11.3156 0.5 10.0017C0.5 8.68772 0.749334 7.45268 1.248 6.29655C1.74667 5.1404 2.42342 4.13472 3.27825 3.2795C4.1331 2.42427 5.13834 1.74721 6.29398 1.24833C7.44959 0.749443 8.68437 0.5 9.9983 0.5C11.3122 0.5 12.5473 0.749334 13.7034 1.248C14.8596 1.74667 15.8652 2.42342 16.7205 3.27825C17.5757 4.1331 18.2527 5.13834 18.7516 6.29398C19.2505 7.44959 19.5 8.68437 19.5 9.9983C19.5 11.3122 19.2506 12.5473 18.752 13.7034C18.2533 14.8596 17.5765 15.8652 16.7217 16.7205C15.8669 17.5757 14.8616 18.2527 13.706 18.7516C12.5504 19.2505 11.3156 19.5 10.0016 19.5ZM9.99998 18C12.2333 18 14.125 17.225 15.675 15.675C17.225 14.125 18 12.2333 18 9.99998C18 7.76664 17.225 5.87498 15.675 4.32498C14.125 2.77498 12.2333 1.99998 9.99998 1.99998C7.76664 1.99998 5.87498 2.77498 4.32498 4.32498C2.77498 5.87498 1.99998 7.76664 1.99998 9.99998C1.99998 12.2333 2.77498 14.125 4.32498 15.675C5.87498 17.225 7.76664 18 9.99998 18Z" fill="currentColor"/>
</svg>
