<svg width="19" height="20" viewBox="0 0 19 20" fill="none" xmlns="http://www.w3.org/2000/svg">
<path d="M7.98067 19.5C7.75631 19.5 7.56207 19.4246 7.39797 19.274C7.23387 19.1233 7.13516 18.9358 7.10182 18.7115L6.81145 16.4538C6.5435 16.3641 6.26882 16.2384 5.9874 16.0769C5.70598 15.9153 5.45437 15.7422 5.23257 15.5576L3.14412 16.4384C2.93002 16.532 2.71752 16.5429 2.50662 16.4711C2.29572 16.3993 2.13002 16.2647 2.0095 16.0673L0.505699 13.4481C0.391582 13.2506 0.356324 13.0397 0.399924 12.8154C0.443507 12.591 0.555682 12.4102 0.736449 12.2731L2.54415 10.9058C2.52107 10.757 2.50472 10.6077 2.4951 10.4577C2.48548 10.3077 2.48067 10.1583 2.48067 10.0096C2.48067 9.86728 2.48548 9.72273 2.4951 9.57593C2.50472 9.42913 2.52107 9.26855 2.54415 9.0942L0.736449 7.72688C0.555682 7.58971 0.441907 7.40894 0.395124 7.18458C0.348324 6.96023 0.385182 6.74934 0.505699 6.5519L2.0095 3.95195C2.13002 3.75452 2.29412 3.6199 2.50182 3.5481C2.70951 3.4763 2.9204 3.4872 3.1345 3.5808L5.22295 4.45195C5.46398 4.26092 5.72136 4.08623 5.99507 3.9279C6.26881 3.76955 6.53772 3.6423 6.80182 3.54615L7.10182 1.28848C7.13516 1.06411 7.23387 0.876608 7.39797 0.725975C7.56207 0.575325 7.75631 0.5 7.98067 0.5H11.0095C11.2338 0.5 11.4296 0.575325 11.5969 0.725975C11.7643 0.876608 11.8646 1.06411 11.8979 1.28848L12.1883 3.55578C12.4883 3.66474 12.7598 3.79198 13.0027 3.9375C13.2457 4.08302 13.4909 4.2545 13.7383 4.45195L15.8652 3.5808C16.0793 3.4872 16.2902 3.4747 16.4979 3.5433C16.7056 3.61188 16.8697 3.74489 16.9902 3.94233L18.494 6.5519C18.6146 6.74934 18.6514 6.96023 18.6046 7.18458C18.5578 7.40894 18.4441 7.58971 18.2633 7.72688L16.4171 9.12303C16.453 9.28458 16.4726 9.43554 16.4758 9.57593C16.479 9.71631 16.4806 9.85766 16.4806 9.99998C16.4806 10.1359 16.4774 10.274 16.471 10.4144C16.4646 10.5548 16.4415 10.7154 16.4017 10.8962L18.2287 12.2731C18.4094 12.4102 18.5232 12.591 18.57 12.8154C18.6168 13.0397 18.58 13.2506 18.4594 13.4481L16.9556 16.0519C16.8351 16.2493 16.6668 16.3849 16.4508 16.4586C16.2348 16.5323 16.0197 16.5224 15.8056 16.4288L13.7383 15.548C13.4909 15.7455 13.2383 15.9201 12.9806 16.0721C12.7229 16.224 12.4588 16.348 12.1883 16.4442L11.8979 18.7115C11.8646 18.9358 11.7643 19.1233 11.5969 19.274C11.4296 19.4246 11.2338 19.5 11.0095 19.5H7.98067ZM8.49987 18H10.4652L10.8249 15.3211C11.3351 15.1878 11.8015 14.9984 12.2239 14.7529C12.6463 14.5074 13.0537 14.1917 13.446 13.8058L15.9306 14.85L16.9152 13.15L14.746 11.5154C14.8294 11.2564 14.8861 11.0025 14.9162 10.7538C14.9463 10.5051 14.9614 10.2538 14.9614 9.99998C14.9614 9.73973 14.9463 9.48844 14.9162 9.24613C14.8861 9.00383 14.8294 8.75639 14.746 8.50383L16.9345 6.84998L15.9499 5.14998L13.4364 6.2096C13.1018 5.8519 12.7008 5.53588 12.2335 5.26153C11.7662 4.98716 11.2934 4.79293 10.8152 4.67883L10.4999 1.99998H8.51525L8.1845 4.6692C7.67423 4.78972 7.20307 4.97433 6.77102 5.22305C6.33897 5.47177 5.9268 5.79228 5.5345 6.1846L3.04987 5.14998L2.06525 6.84998L4.22487 8.4596C4.14154 8.69677 4.08321 8.94356 4.04987 9.19998C4.01654 9.45639 3.99987 9.72627 3.99987 10.0096C3.99987 10.2699 4.01654 10.525 4.04987 10.775C4.08321 11.025 4.13833 11.2718 4.21525 11.5154L2.06525 13.15L3.04987 14.85L5.52487 13.8C5.90436 14.1897 6.31012 14.509 6.74217 14.7577C7.17422 15.0064 7.65179 15.1974 8.17487 15.3308L8.49987 18ZM9.5114 13C10.3434 13 11.0515 12.708 11.6354 12.124C12.2194 11.54 12.5114 10.832 12.5114 9.99998C12.5114 9.16794 12.2194 8.45993 11.6354 7.87595C11.0515 7.29198 10.3434 7 9.5114 7C8.66912 7 7.95855 7.29198 7.3797 7.87595C6.80087 8.45993 6.51145 9.16794 6.51145 9.99998C6.51145 10.832 6.80087 11.54 7.3797 12.124C7.95855 12.708 8.66912 13 9.5114 13Z" fill="currentColor"/>
</svg>
