<svg width="24" height="24" viewBox="0 0 24 24" fill="none" xmlns="http://www.w3.org/2000/svg">
<path d="M9.16321 12.6442C8.95063 12.6442 8.77254 12.5723 8.62896 12.4286C8.48538 12.2848 8.41359 12.1067 8.41359 11.8942V5.36343L6.09624 7.68078C5.96099 7.81923 5.79192 7.88845 5.58904 7.88845C5.38615 7.88845 5.20715 7.81672 5.05204 7.67325C4.8969 7.51674 4.81934 7.33784 4.81934 7.13655C4.81934 6.93527 4.8969 6.75707 5.05204 6.60195L8.52126 3.13273C8.61484 3.03915 8.71399 2.97312 8.81869 2.93465C8.92339 2.89619 9.03557 2.87695 9.15524 2.87695C9.27489 2.87695 9.38855 2.89633 9.49624 2.93508C9.60394 2.97385 9.70394 3.03973 9.79624 3.13273L13.2905 6.62695C13.4392 6.77567 13.5126 6.9481 13.5107 7.14425C13.5087 7.3404 13.4302 7.51674 13.2751 7.67325C13.12 7.81672 12.9443 7.89102 12.7482 7.89615C12.552 7.90129 12.3764 7.82629 12.2213 7.67115L9.91354 5.36343V11.9039C9.91354 12.1136 9.84164 12.2895 9.69784 12.4314C9.55402 12.5733 9.37581 12.6442 9.16321 12.6442ZM14.8449 21.1134C14.7253 21.1134 14.6116 21.0941 14.5039 21.0553C14.3962 21.0166 14.2962 20.9507 14.2039 20.8577L10.7097 17.3634C10.561 17.2147 10.4876 17.0423 10.4895 16.8462C10.4914 16.65 10.57 16.4737 10.7251 16.3172C10.8802 16.1737 11.0558 16.0994 11.252 16.0942C11.4481 16.0891 11.6238 16.1641 11.7789 16.3192L14.0866 18.627V12.0866C14.0866 11.8768 14.1585 11.7009 14.3023 11.559C14.4462 11.4171 14.6244 11.3462 14.837 11.3462C15.0495 11.3462 15.2276 11.4181 15.3712 11.5618C15.5148 11.7056 15.5866 11.8837 15.5866 12.0962V18.627L17.9039 16.3096C18.0392 16.1712 18.2083 16.1019 18.4111 16.1019C18.614 16.1019 18.793 16.1737 18.9481 16.3172C19.1033 16.4737 19.1808 16.6526 19.1808 16.8538C19.1808 17.0551 19.1033 17.2333 18.9481 17.3884L15.4789 20.8577C15.3853 20.9513 15.2862 21.0173 15.1815 21.0557C15.0768 21.0942 14.9646 21.1134 14.8449 21.1134Z" fill="currentColor"/>
</svg>
