<svg width="14" height="20" viewBox="0 0 14 20" fill="none" xmlns="http://www.w3.org/2000/svg">
<path d="M7.00007 19.4998C6.78725 19.4998 6.60905 19.428 6.46547 19.2844C6.32188 19.1408 6.25009 18.9626 6.25009 18.7498V3.34404L1.88852 7.69021C1.75005 7.82868 1.58018 7.89887 1.37892 7.90079C1.17763 7.90272 1.00263 7.82933 0.853915 7.68061C0.715465 7.54215 0.64624 7.36811 0.64624 7.15851C0.64624 6.9489 0.715465 6.77486 0.853915 6.63641L6.36739 1.12294C6.46097 1.02936 6.55969 0.963329 6.66354 0.924863C6.76737 0.886413 6.87955 0.867188 7.00007 0.867188C7.12058 0.867188 7.23276 0.886413 7.33659 0.924863C7.44044 0.963329 7.53916 1.02936 7.63274 1.12294L13.1558 6.64601C13.2943 6.78448 13.3635 6.95596 13.3635 7.16044C13.3635 7.36492 13.2943 7.54151 13.1558 7.69021C13.0071 7.84535 12.8289 7.92131 12.6212 7.91811C12.4135 7.9149 12.2353 7.83893 12.0866 7.69021L7.75004 3.35364V18.7498C7.75004 18.9626 7.67825 19.1408 7.53467 19.2844C7.39108 19.428 7.21288 19.4998 7.00007 19.4998Z" fill="currentColor"/>
</svg>
