<svg width="14" height="20" viewBox="0 0 14 20" fill="none" xmlns="http://www.w3.org/2000/svg">
<path d="M7.00007 19.1229C6.87955 19.1229 6.76737 19.1036 6.66354 19.0652C6.55969 19.0267 6.46097 18.9607 6.36739 18.8671L0.853915 13.3536C0.715465 13.2152 0.64624 13.0411 0.64624 12.8315C0.64624 12.6219 0.715465 12.4479 0.853915 12.3094C1.00263 12.1607 1.17763 12.0873 1.37892 12.0892C1.58018 12.0912 1.75005 12.1614 1.88852 12.2998L6.25009 16.646V1.24021C6.25009 1.02739 6.32188 0.849192 6.46547 0.705609C6.60905 0.562026 6.78725 0.490234 7.00007 0.490234C7.21288 0.490234 7.39108 0.562026 7.53467 0.705609C7.67825 0.849192 7.75004 1.02739 7.75004 1.24021V16.6364L12.0866 12.2998C12.2353 12.1511 12.4135 12.0751 12.6212 12.0719C12.8289 12.0687 13.0071 12.1447 13.1558 12.2998C13.2943 12.4485 13.3635 12.6251 13.3635 12.8296C13.3635 13.0341 13.2943 13.2056 13.1558 13.344L7.63274 18.8671C7.53916 18.9607 7.44044 19.0267 7.33659 19.0652C7.23276 19.1036 7.12058 19.1229 7.00007 19.1229Z" fill="currentColor"/>
</svg>
