<svg width="16" height="18" viewBox="0 0 16 18" fill="none" xmlns="http://www.w3.org/2000/svg">
<path d="M3.3077 17.5017C2.80898 17.5017 2.38302 17.3251 2.02982 16.9719C1.67661 16.6187 1.5 16.1928 1.5 15.694V3.00176H1.25C1.03718 3.00176 0.858983 2.92997 0.7154 2.78639C0.5718 2.6428 0.5 2.4646 0.5 2.25179C0.5 2.03897 0.5718 1.86077 0.7154 1.71719C0.858983 1.57359 1.03718 1.50179 1.25 1.50179H4.99997C4.99997 1.25692 5.08619 1.04827 5.25863 0.875838C5.43106 0.703404 5.63971 0.617188 5.88457 0.617188H10.1154C10.3602 0.617188 10.5689 0.703404 10.7413 0.875838C10.9138 1.04827 11 1.25692 11 1.50179H14.75C14.9628 1.50179 15.141 1.57359 15.2845 1.71719C15.4281 1.86077 15.5 2.03897 15.5 2.25179C15.5 2.4646 15.4281 2.6428 15.2845 2.78639C15.141 2.92997 14.9628 3.00176 14.75 3.00176H14.5V15.694C14.5 16.1928 14.3233 16.6187 13.9701 16.9719C13.6169 17.3251 13.191 17.5017 12.6922 17.5017H3.3077ZM13 3.00176H2.99997V15.694C2.99997 15.7838 3.02883 15.8575 3.08652 15.9152C3.14423 15.9729 3.21795 16.0018 3.3077 16.0018H12.6922C12.782 16.0018 12.8557 15.9729 12.9134 15.9152C12.9711 15.8575 13 15.7838 13 15.694V3.00176ZM5.40385 14.0018H6.90382V5.00176H5.40385V14.0018ZM9.09613 14.0018H10.5961V5.00176H9.09613V14.0018Z" fill="currentColor"/>
</svg>
