<svg viewBox="0 0 24 24" height="24" stroke="none" width="24" preserveAspectRatio="xMidYMid meet" class="" version="1.1" x="0px" y="0px" enable-background="new 0 0 24 24" xml:space="preserve"><path fill="currentColor" stroke="none" d="M14.8,15.3l1.3-3.8c0.1-0.2,0-0.5-0.2-0.6l-3.3-2.4c-0.2-0.1-0.5-0.1-0.6,0l-3.3,2.4 c-0.2,0.1-0.3,0.4-0.2,0.6l1.3,3.8c0.1,0.2,0.3,0.4,0.5,0.4h4C14.5,15.7,14.7,15.5,14.8,15.3z"></path><path fill="currentColor" stroke="none" d="M12,1.9C6.4,1.9,1.9,6.4,1.9,12S6.4,22.1,12,22.1S22.1,17.6,22.1,12S17.6,1.9,12,1.9z M9.8,20.3 c0.1-0.2,0.1-0.4,0-0.6l-1.4-2.3c-0.1-0.1-0.2-0.2-0.4-0.3l-2.5-0.6c-0.2-0.1-0.5,0.1-0.6,0.2c-0.9-1.3-1.4-2.9-1.5-4.5 c0.2,0,0.4,0,0.5-0.2l1.7-2c0.1,0,0.2-0.2,0.2-0.3L5.5,7.1c0-0.2-0.1-0.3-0.3-0.4C6.2,5.4,7.5,4.5,9,4c0,0.1,0.2,0.3,0.3,0.3 l2.5,1.1c0.1,0.1,0.3,0.1,0.4,0l2.5-1.1C14.8,4.2,14.9,4.1,15,4c1.5,0.6,2.7,1.5,3.7,2.7c-0.1,0.1-0.2,0.2-0.2,0.4l-0.2,2.6 c0,0.2,0,0.3,0.1,0.4l1.7,2c0.1,0.1,0.3,0.2,0.4,0.2c0,1.6-0.5,3.1-1.3,4.4c-0.1-0.1-0.2-0.1-0.4-0.1l-2.5,0.6 c-0.1,0-0.3,0.1-0.4,0.3l-1.4,2.3c-0.1,0.2-0.1,0.3,0,0.5c-0.8,0.2-1.6,0.4-2.5,0.4C11.3,20.6,10.5,20.5,9.8,20.3z"></path></svg>