<svg viewBox="0 0 24 24" stroke="none" height="24" width="24" preserveAspectRatio="xMidYMid meet" class="" version="1.1" x="0px" y="0px" enable-background="new 0 0 24 24" xml:space="preserve"><path fill="currentColor" stroke="none" d="M21.5,11.5c0-0.7-0.1-1.4-0.3-2l-1.5-4.3C19.2,3.9,18,3,16.6,3H7.3C5.9,3,4.7,3.9,4.2,5.2L2.6,9.9 c-0.1,0.4-0.2,0.7-0.2,1.1v1.2l0,0v7.4c0,0.6,0.5,1.1,1.1,1.1h1.1c0.6,0,1.1-0.5,1.1-1.1v-1.1h12.7v1.1c0,0.6,0.5,1.1,1.1,1.1h1.1 c0.6,0,1.1-0.5,1.1-1.1v-7.4l0,0L21.5,11.5L21.5,11.5z M4.1,10.4l1.6-4.7C5.9,5,6.6,4.5,7.4,4.5h9.2c0.7,0,1.4,0.5,1.6,1.2l1.5,4.3 c0.1,0.3,0.2,0.6,0.2,0.8H4C3.9,10.7,4,10.5,4.1,10.4z M5.5,16.1c-0.8,0-1.5-0.7-1.5-1.5s0.7-1.5,1.5-1.5S7,13.8,7,14.6 C6.9,15.4,6.3,16.1,5.5,16.1z M14.9,15.5H9.3c-0.5,0-1-0.4-1-1c0-0.5,0.4-1,1-1h5.6c0.5,0,1,0.4,1,1C15.8,15.1,15.4,15.5,14.9,15.5z  M18.6,16.1c-0.8,0-1.5-0.7-1.5-1.5s0.7-1.5,1.5-1.5s1.5,0.7,1.5,1.5C20.1,15.4,19.4,16.1,18.6,16.1z"></path></svg>