<svg width="24" height="24" viewBox="0 0 24 24" fill="none" xmlns="http://www.w3.org/2000/svg">
<g id="outlined/edit">
<path id="Vector" d="M14 20.75C13.7872 20.75 13.609 20.6782 13.4654 20.5346C13.3218 20.391 13.25 20.2128 13.25 20C13.25 19.7872 13.3218 19.609 13.4654 19.4654C13.609 19.3218 13.7872 19.25 14 19.25C14.8666 19.25 15.625 19.0766 16.275 18.7298C16.925 18.383 17.25 17.9731 17.25 17.5C17.25 17.1705 17.0936 16.8705 16.7807 16.6C16.4679 16.3294 16.0301 16.1012 15.4672 15.9153L16.5961 14.7961C17.2769 15.0936 17.806 15.4686 18.1836 15.9211C18.5612 16.3737 18.75 16.9 18.75 17.5C18.75 18.523 18.2506 19.3205 17.2519 19.8923C16.2532 20.4641 15.1692 20.75 14 20.75ZM5.1327 13.3019C4.52757 13.025 4.0625 12.6958 3.7375 12.3144C3.4125 11.933 3.25 11.4948 3.25 11C3.25 10.3705 3.49551 9.83268 3.98652 9.38653C4.47756 8.94038 5.3673 8.43525 6.65575 7.87115C7.72498 7.38782 8.42467 7.02788 8.7548 6.79133C9.08493 6.55479 9.25 6.29101 9.25 5.99998C9.25 5.66279 9.05865 5.37016 8.67595 5.12208C8.29325 4.87399 7.73459 4.74995 6.99997 4.74995C6.55766 4.74995 6.1724 4.80957 5.8442 4.9288C5.51598 5.04803 5.22559 5.23393 4.97302 5.4865C4.83457 5.62497 4.66727 5.70606 4.47112 5.72978C4.27497 5.75349 4.09421 5.69933 3.92883 5.56728C3.76344 5.43908 3.66889 5.27529 3.64517 5.07593C3.62146 4.87658 3.67883 4.69421 3.8173 4.52883C4.10192 4.17114 4.53204 3.86858 5.10767 3.62115C5.68331 3.37372 6.31407 3.25 6.99997 3.25C8.11664 3.25 9.0208 3.5032 9.71245 4.0096C10.4041 4.51602 10.7499 5.17948 10.7499 5.99998C10.7499 6.60509 10.5147 7.14836 10.0442 7.62978C9.57368 8.11118 8.64356 8.64932 7.25382 9.2442C6.25509 9.67368 5.5881 10.0109 5.25285 10.2557C4.91758 10.5006 4.74995 10.7487 4.74995 11C4.74995 11.2141 4.87944 11.4208 5.13842 11.6202C5.39741 11.8195 5.7737 12.0051 6.2673 12.1769L5.1327 13.3019ZM18.5327 9.7557L15.1193 6.3423L16.0827 5.37885C16.4122 5.04937 16.7984 4.88302 17.2413 4.8798C17.6843 4.8766 18.0654 5.03974 18.3846 5.36923L19.5057 6.49035C19.8352 6.80958 19.9983 7.19067 19.9951 7.6336C19.9919 8.07655 19.8256 8.46277 19.4961 8.79225L18.5327 9.7557ZM5.91342 18.9615H7.18842L14.85 11.3L13.575 10.025L5.91342 17.6865V18.9615ZM4.875 20.4615C4.74808 20.4615 4.63943 20.4163 4.54905 20.3259C4.45867 20.2355 4.41347 20.1269 4.41347 20V17.2385C4.41347 17.2115 4.46027 17.1013 4.55385 16.9077L13.575 7.88655L16.9884 11.3L7.96725 20.3211C7.94033 20.348 7.83007 20.3948 7.63647 20.4615H4.875Z" fill="currentColor"/>
</g>
</svg>
