<svg width="54" height="54" viewBox="0 0 54 54" fill="none" xmlns="http://www.w3.org/2000/svg">
<path d="M36 30C36 34.9706 31.9706 39 27 39C22.0294 39 18 34.9706 18 30C18 25.0294 22.0294 21 27 21C31.9706 21 36 25.0294 36 30Z" fill="currentColor" stroke="none"/>
<path d="M43 18C43 20.2091 41.2091 22 39 22C36.7909 22 35 20.2091 35 18C35 15.7909 36.7909 14 39 14C41.2091 14 43 15.7909 43 18Z" fill="currentColor" stroke="none"/>
<path d="M10 46C10 48.2091 8.20914 50 6 50C3.79086 50 2 48.2091 2 46C2 43.7909 3.79086 42 6 42C8.20914 42 10 43.7909 10 46Z" fill="currentColor" stroke="none"/>
<path d="M49 41C49 43.2091 47.2091 45 45 45C42.7909 45 41 43.2091 41 41C41 38.7909 42.7909 37 45 37C47.2091 37 49 38.7909 49 41Z" fill="currentColor" stroke="none"/>
<path d="M18 6C18 8.20914 16.2091 10 14 10C11.7909 10 10 8.20914 10 6C10 3.79086 11.7909 2 14 2C16.2091 2 18 3.79086 18 6Z" fill="currentColor" stroke="none"/>
<path d="M26.1056 30.4472L15.1056 8.44721M27.5812 30.8137L6.58124 45.8137M27.5433 29.1604L44.5433 40.1604M25.3492 29.2407L39.3492 17.2407M36 30C36 34.9706 31.9706 39 27 39C22.0294 39 18 34.9706 18 30C18 25.0294 22.0294 21 27 21C31.9706 21 36 25.0294 36 30ZM43 18C43 20.2091 41.2091 22 39 22C36.7909 22 35 20.2091 35 18C35 15.7909 36.7909 14 39 14C41.2091 14 43 15.7909 43 18ZM10 46C10 48.2091 8.20914 50 6 50C3.79086 50 2 48.2091 2 46C2 43.7909 3.79086 42 6 42C8.20914 42 10 43.7909 10 46ZM49 41C49 43.2091 47.2091 45 45 45C42.7909 45 41 43.2091 41 41C41 38.7909 42.7909 37 45 37C47.2091 37 49 38.7909 49 41ZM18 6C18 8.20914 16.2091 10 14 10C11.7909 10 10 8.20914 10 6C10 3.79086 11.7909 2 14 2C16.2091 2 18 3.79086 18 6Z" stroke="currentColor" stroke-width="2"/>
</svg>
