<svg width="24" height="24" viewBox="0 0 24 24" fill="none" xmlns="http://www.w3.org/2000/svg">
<g id="filled/warning">
<path id="Vector" d="M3.42555 20.5004C3.25605 20.5004 3.10382 20.4589 2.96887 20.3761C2.83392 20.2932 2.72897 20.184 2.654 20.0484C2.57602 19.9138 2.53312 19.768 2.52532 19.6109C2.51752 19.4539 2.5599 19.2984 2.65245 19.1443L11.2132 4.35652C11.3057 4.20249 11.4216 4.08861 11.5607 4.0149C11.6998 3.94116 11.8462 3.9043 12.0001 3.9043C12.1539 3.9043 12.3004 3.94116 12.4395 4.0149C12.5786 4.08861 12.6944 4.20249 12.787 4.35652L21.3477 19.1443C21.4403 19.2984 21.4827 19.4539 21.4749 19.6109C21.4671 19.768 21.4242 19.9138 21.3462 20.0484C21.2712 20.184 21.1663 20.2932 21.0313 20.3761C20.8964 20.4589 20.7441 20.5004 20.5746 20.5004H3.42555ZM12.0001 17.8081C12.2289 17.8081 12.4208 17.7307 12.5756 17.5759C12.7304 17.4211 12.8078 17.2292 12.8078 17.0004C12.8078 16.7715 12.7304 16.5797 12.5756 16.4249C12.4208 16.2701 12.2289 16.1927 12.0001 16.1927C11.7712 16.1927 11.5794 16.2701 11.4246 16.4249C11.2698 16.5797 11.1924 16.7715 11.1924 17.0004C11.1924 17.2292 11.2698 17.4211 11.4246 17.5759C11.5794 17.7307 11.7712 17.8081 12.0001 17.8081ZM12.0004 15.1927C12.213 15.1927 12.3911 15.1208 12.5347 14.9771C12.6783 14.8333 12.7501 14.6552 12.7501 14.4427V10.9427C12.7501 10.7302 12.6782 10.5521 12.5344 10.4083C12.3906 10.2646 12.2124 10.1927 11.9998 10.1927C11.7872 10.1927 11.6091 10.2646 11.4655 10.4083C11.3219 10.5521 11.2501 10.7302 11.2501 10.9427V14.4427C11.2501 14.6552 11.322 14.8333 11.4658 14.9771C11.6096 15.1208 11.7878 15.1927 12.0004 15.1927Z" fill="currentColor"/>
</g>
</svg>
