<svg width="16" height="16" viewBox="0 0 16 16" fill="none" xmlns="http://www.w3.org/2000/svg">
<path stroke="none" d="M1.33333 7.33333C0.966667 7.33333 0.652778 7.20278 0.391667 6.94167C0.130556 6.68056 0 6.36667 0 6V1.33333C0 0.966667 0.130556 0.652778 0.391667 0.391667C0.652778 0.130556 0.966667 0 1.33333 0H6C6.36667 0 6.68056 0.130556 6.94167 0.391667C7.20278 0.652778 7.33333 0.966667 7.33333 1.33333V6C7.33333 6.36667 7.20278 6.68056 6.94167 6.94167C6.68056 7.20278 6.36667 7.33333 6 7.33333H1.33333ZM1.33333 16C0.966667 16 0.652778 15.8694 0.391667 15.6083C0.130556 15.3472 0 15.0333 0 14.6667V10C0 9.63333 0.130556 9.31944 0.391667 9.05833C0.652778 8.79722 0.966667 8.66667 1.33333 8.66667H6C6.36667 8.66667 6.68056 8.79722 6.94167 9.05833C7.20278 9.31944 7.33333 9.63333 7.33333 10V14.6667C7.33333 15.0333 7.20278 15.3472 6.94167 15.6083C6.68056 15.8694 6.36667 16 6 16H1.33333ZM10 7.33333C9.63333 7.33333 9.31944 7.20278 9.05833 6.94167C8.79722 6.68056 8.66667 6.36667 8.66667 6V1.33333C8.66667 0.966667 8.79722 0.652778 9.05833 0.391667C9.31944 0.130556 9.63333 0 10 0H14.6667C15.0333 0 15.3472 0.130556 15.6083 0.391667C15.8694 0.652778 16 0.966667 16 1.33333V6C16 6.36667 15.8694 6.68056 15.6083 6.94167C15.3472 7.20278 15.0333 7.33333 14.6667 7.33333H10ZM10 16C9.63333 16 9.31944 15.8694 9.05833 15.6083C8.79722 15.3472 8.66667 15.0333 8.66667 14.6667V10C8.66667 9.63333 8.79722 9.31944 9.05833 9.05833C9.31944 8.79722 9.63333 8.66667 10 8.66667H14.6667C15.0333 8.66667 15.3472 8.79722 15.6083 9.05833C15.8694 9.31944 16 9.63333 16 10V14.6667C16 15.0333 15.8694 15.3472 15.6083 15.6083C15.3472 15.8694 15.0333 16 14.6667 16H10Z" fill="black"/>
</svg>
