<svg width="16" height="16" viewBox="0 0 16 16" fill="none" xmlns="http://www.w3.org/2000/svg">
<path stroke="none" d="M3.29412 5.45098H5.64706C5.81373 5.45098 5.95343 5.39428 6.06618 5.28088C6.17892 5.16747 6.23529 5.02695 6.23529 4.85931C6.23529 4.69167 6.17892 4.55229 6.06618 4.44118C5.95343 4.33007 5.81373 4.27451 5.64706 4.27451H3.29412C3.12745 4.27451 2.98775 4.33121 2.875 4.44461C2.76225 4.55802 2.70588 4.69854 2.70588 4.86618C2.70588 5.03382 2.76225 5.1732 2.875 5.28431C2.98775 5.39543 3.12745 5.45098 3.29412 5.45098ZM3.29412 8.58824H5.64706C5.81373 8.58824 5.95343 8.53154 6.06618 8.41814C6.17892 8.30473 6.23529 8.1642 6.23529 7.99657C6.23529 7.82892 6.17892 7.68954 6.06618 7.57843C5.95343 7.46732 5.81373 7.41177 5.64706 7.41177H3.29412C3.12745 7.41177 2.98775 7.46846 2.875 7.58186C2.76225 7.69528 2.70588 7.8358 2.70588 8.00343C2.70588 8.17108 2.76225 8.31046 2.875 8.42157C2.98775 8.53268 3.12745 8.58824 3.29412 8.58824ZM3.29412 11.7255H5.64706C5.81373 11.7255 5.95343 11.6688 6.06618 11.5554C6.17892 11.442 6.23529 11.3015 6.23529 11.1338C6.23529 10.9662 6.17892 10.8268 6.06618 10.7157C5.95343 10.6046 5.81373 10.549 5.64706 10.549H3.29412C3.12745 10.549 2.98775 10.6057 2.875 10.7191C2.76225 10.8325 2.70588 10.9731 2.70588 11.1407C2.70588 11.3083 2.76225 11.4477 2.875 11.5588C2.98775 11.6699 3.12745 11.7255 3.29412 11.7255ZM10 9.92157C10.0523 9.92157 10.1013 9.91265 10.1471 9.89482C10.1928 9.87701 10.2353 9.84671 10.2745 9.80392L13.1765 6.88235C13.3072 6.75164 13.3758 6.61438 13.3824 6.47059C13.3889 6.3268 13.3268 6.18954 13.1961 6.05882C13.0776 5.94118 12.9368 5.88235 12.7739 5.88235C12.6109 5.88235 12.4706 5.94118 12.3529 6.05882L10 8.41177L9.29412 7.72549C9.17647 7.60784 9.03922 7.54902 8.88235 7.54902C8.72549 7.54902 8.58568 7.60784 8.46292 7.72549C8.35039 7.84314 8.29412 7.98039 8.29412 8.13726C8.29412 8.29412 8.35294 8.43137 8.47059 8.54902L9.72549 9.80392C9.76471 9.84671 9.80719 9.87701 9.85294 9.89482C9.89869 9.91265 9.94771 9.92157 10 9.92157ZM1.17647 15.0588C0.862745 15.0588 0.588235 14.9412 0.352941 14.7059C0.117647 14.4706 0 14.1961 0 13.8824V2.11765C0 1.80392 0.117647 1.52941 0.352941 1.29412C0.588235 1.05882 0.862745 0.941177 1.17647 0.941177H14.8235C15.1373 0.941177 15.4118 1.05882 15.6471 1.29412C15.8824 1.52941 16 1.80392 16 2.11765V13.8824C16 14.1961 15.8824 14.4706 15.6471 14.7059C15.4118 14.9412 15.1373 15.0588 14.8235 15.0588H1.17647ZM1.17647 13.8824H14.8235V2.11765H1.17647V13.8824Z" fill="currentColor"/>
</svg>
