<svg width="16" height="16" viewBox="0 0 16 16" fill="none" xmlns="http://www.w3.org/2000/svg">
<path stroke="none" d="M1.17647 15.0588C0.862745 15.0588 0.588235 14.9412 0.352941 14.7059C0.117647 14.4706 0 14.1961 0 13.8824V2.11765C0 1.80392 0.117647 1.52941 0.352941 1.29412C0.588235 1.05882 0.862745 0.941177 1.17647 0.941177H14.8235C15.1373 0.941177 15.4118 1.05882 15.6471 1.29412C15.8824 1.52941 16 1.80392 16 2.11765V13.8824C16 14.1961 15.8824 14.4706 15.6471 14.7059C15.4118 14.9412 15.1373 15.0588 14.8235 15.0588H1.17647ZM5.64706 11.9216C5.86928 11.9216 6.05556 11.8464 6.20588 11.6961C6.35621 11.5458 6.43137 11.3595 6.43137 11.1373C6.43137 10.915 6.35621 10.7288 6.20588 10.5784C6.05556 10.4281 5.86928 10.3529 5.64706 10.3529H3.29412C3.0719 10.3529 2.88562 10.4281 2.73529 10.5784C2.58497 10.7288 2.5098 10.915 2.5098 11.1373C2.5098 11.3595 2.58497 11.5458 2.73529 11.6961C2.88562 11.8464 3.0719 11.9216 3.29412 11.9216H5.64706ZM10 8.13726L9.43137 7.56863C9.27451 7.41177 9.0915 7.3366 8.88235 7.34314C8.6732 7.34967 8.4902 7.43137 8.33333 7.58824C8.18954 7.7451 8.11438 7.92811 8.10784 8.13726C8.10131 8.34641 8.17647 8.52941 8.33333 8.68628L9.58824 9.94118C9.70588 10.0588 9.84314 10.1176 10 10.1176C10.1569 10.1176 10.2941 10.0588 10.4118 9.94118L13.3333 7.01961C13.4902 6.86275 13.5686 6.67974 13.5686 6.47059C13.5686 6.26144 13.4902 6.07843 13.3333 5.92157C13.1765 5.76471 12.9902 5.68628 12.7745 5.68628C12.5588 5.68628 12.3725 5.76471 12.2157 5.92157L10 8.13726ZM5.64706 8.78432C5.86928 8.78432 6.05556 8.70915 6.20588 8.55882C6.35621 8.4085 6.43137 8.22222 6.43137 8C6.43137 7.77778 6.35621 7.5915 6.20588 7.44118C6.05556 7.29085 5.86928 7.21569 5.64706 7.21569H3.29412C3.0719 7.21569 2.88562 7.29085 2.73529 7.44118C2.58497 7.5915 2.5098 7.77778 2.5098 8C2.5098 8.22222 2.58497 8.4085 2.73529 8.55882C2.88562 8.70915 3.0719 8.78432 3.29412 8.78432H5.64706ZM5.64706 5.64706C5.86928 5.64706 6.05556 5.5719 6.20588 5.42157C6.35621 5.27124 6.43137 5.08497 6.43137 4.86275C6.43137 4.64052 6.35621 4.45425 6.20588 4.30392C6.05556 4.1536 5.86928 4.07843 5.64706 4.07843H3.29412C3.0719 4.07843 2.88562 4.1536 2.73529 4.30392C2.58497 4.45425 2.5098 4.64052 2.5098 4.86275C2.5098 5.08497 2.58497 5.27124 2.73529 5.42157C2.88562 5.5719 3.0719 5.64706 3.29412 5.64706H5.64706Z" fill="black"/>
</svg>
