<svg width="16" height="12" viewBox="0 0 16 12" fill="none" xmlns="http://www.w3.org/2000/svg">
<path stroke="none" d="M0.542986 11.6199C0.386124 11.6199 0.25641 11.5686 0.153846 11.4661C0.0512821 11.3635 0 11.2338 0 11.0769V9.91856C0 9.49624 0.108597 9.11313 0.325792 8.76924C0.542986 8.42535 0.844646 8.16893 1.23077 8.00001C2.11161 7.61388 2.90498 7.33636 3.61086 7.16743C4.31674 6.9985 5.04374 6.91403 5.79186 6.91403C6.53997 6.91403 7.26395 6.9985 7.9638 7.16743C8.66365 7.33636 9.454 7.61388 10.3348 8.00001C10.721 8.16893 11.0256 8.42535 11.2489 8.76924C11.4721 9.11313 11.5837 9.49624 11.5837 9.91856V11.0769C11.5837 11.2338 11.5324 11.3635 11.4299 11.4661C11.3273 11.5686 11.1976 11.6199 11.0407 11.6199H0.542986ZM12.2715 11.6199C12.3922 11.5958 12.4887 11.5324 12.5611 11.4299C12.6335 11.3273 12.6697 11.1976 12.6697 11.0407V9.91856C12.6697 9.15838 12.4766 8.53394 12.0905 8.04526C11.7044 7.55657 11.1976 7.16139 10.5701 6.85973C11.4027 6.95627 12.187 7.09805 12.9231 7.28507C13.6591 7.4721 14.2564 7.68628 14.7149 7.92761C15.1131 8.15687 15.4268 8.44043 15.6561 8.77829C15.8854 9.11615 16 9.49624 16 9.91856V11.0769C16 11.2338 15.9487 11.3635 15.8462 11.4661C15.7436 11.5686 15.6139 11.6199 15.457 11.6199H12.2715ZM5.79186 5.80996C4.99548 5.80996 4.34389 5.55657 3.8371 5.04978C3.33032 4.54299 3.07692 3.89141 3.07692 3.09503C3.07692 2.29865 3.33032 1.64706 3.8371 1.14028C4.34389 0.63349 4.99548 0.380096 5.79186 0.380096C6.58824 0.380096 7.23982 0.63349 7.74661 1.14028C8.25339 1.64706 8.50679 2.29865 8.50679 3.09503C8.50679 3.89141 8.25339 4.54299 7.74661 5.04978C7.23982 5.55657 6.58824 5.80996 5.79186 5.80996ZM12.3077 3.09503C12.3077 3.89141 12.0543 4.54299 11.5475 5.04978C11.0407 5.55657 10.3891 5.80996 9.59276 5.80996C9.46003 5.80996 9.31222 5.80091 9.14932 5.78281C8.98643 5.76471 8.83861 5.73153 8.70588 5.68326C8.99548 5.38161 9.21569 5.01056 9.36652 4.57014C9.51735 4.12972 9.59276 3.63802 9.59276 3.09503C9.59276 2.55204 9.51735 2.0724 9.36652 1.65611C9.21569 1.23983 8.99548 0.856718 8.70588 0.506793C8.83861 0.470594 8.98643 0.440428 9.14932 0.416296C9.31222 0.392163 9.46003 0.380096 9.59276 0.380096C10.3891 0.380096 11.0407 0.63349 11.5475 1.14028C12.0543 1.64706 12.3077 2.29865 12.3077 3.09503ZM1.08597 10.5339H10.4977V9.91856C10.4977 9.7255 10.4404 9.53847 10.3258 9.35747C10.2112 9.17648 10.0694 9.04978 9.90045 8.97738C9.03167 8.59126 8.30166 8.33183 7.71041 8.1991C7.11916 8.06637 6.47964 8.00001 5.79186 8.00001C5.10407 8.00001 4.46154 8.06637 3.86425 8.1991C3.26697 8.33183 2.53394 8.59126 1.66516 8.97738C1.49623 9.04978 1.35747 9.17648 1.24887 9.35747C1.14027 9.53847 1.08597 9.7255 1.08597 9.91856V10.5339ZM5.79186 4.72399C6.26244 4.72399 6.65158 4.57014 6.95928 4.26245C7.26697 3.95476 7.42081 3.56562 7.42081 3.09503C7.42081 2.62444 7.26697 2.2353 6.95928 1.92761C6.65158 1.61992 6.26244 1.46607 5.79186 1.46607C5.32127 1.46607 4.93213 1.61992 4.62443 1.92761C4.31674 2.2353 4.1629 2.62444 4.1629 3.09503C4.1629 3.56562 4.31674 3.95476 4.62443 4.26245C4.93213 4.57014 5.32127 4.72399 5.79186 4.72399Z" fill="#8A8D96"/>
</svg>
