<svg width="246" height="78" viewBox="0 0 246 78" fill="none" xmlns="http://www.w3.org/2000/svg">
<path d="M56.6172 75.2193C69.6551 69.1978 78.7023 56.0066 78.7023 40.7024C78.7023 19.7156 61.6892 2.70239 40.7023 2.70239C19.7155 2.70239 2.70233 19.7156 2.70233 40.7024C2.70233 56.0066 11.7496 69.1978 24.7875 75.2193L23.9694 77.045C10.2348 70.7107 0.702332 56.8198 0.702332 40.7024C0.702332 18.611 18.6109 0.702393 40.7023 0.702393C62.7937 0.702393 80.7023 18.611 80.7023 40.7024C80.7023 56.8198 71.1699 70.7107 57.4353 77.045L56.6172 75.2193Z" fill="currentColor"/>
<path d="M37.0829 75.5232C50.2398 76.8824 63.606 70.6875 70.8003 58.5662C80.6662 41.9436 75.1888 20.4704 58.5662 10.6045C41.9436 0.738583 20.4704 6.21596 10.6045 22.8386C3.41023 34.9598 4.37455 49.6603 11.8697 60.5586L10.2344 61.711C2.29973 50.1882 1.27533 34.6383 8.8846 21.8178C19.3143 4.2453 42.0145 -1.54507 59.587 8.88463C77.1595 19.3143 82.9498 42.0146 72.5202 59.587C64.9109 72.4075 50.7702 78.9566 36.8546 77.5108L37.0829 75.5232Z" fill="currentColor"/>
<path d="M66.6292 22.2705C59.6594 12.4799 47.4113 7.08002 34.8245 9.44705C17.5627 12.6933 6.20075 29.3184 9.44698 46.5802C12.6932 63.8421 29.3183 75.204 46.5802 71.9578C59.1669 69.5907 68.6167 60.1104 71.5537 48.4567L73.4991 48.9233C70.3836 61.3195 60.3356 71.406 46.9498 73.9233C28.6024 77.3737 10.9318 65.2973 7.48143 46.9499C4.03106 28.6025 16.1075 10.9319 34.4549 7.48151C47.8408 4.9642 60.8664 10.7115 68.2722 21.1291L66.6292 22.2705Z" fill="currentColor"/>
<path d="M95.6364 29.7273V53H92.8182V29.7273H95.6364Z" fill="currentColor"/>
<path d="M104.487 53V29.7273H112.351C114.169 29.7273 115.661 30.0379 116.828 30.6591C117.995 31.2727 118.858 32.1174 119.419 33.1932C119.979 34.2689 120.26 35.4924 120.26 36.8636C120.26 38.2348 119.979 39.4508 119.419 40.5114C118.858 41.572 117.998 42.4053 116.839 43.0114C115.68 43.6098 114.199 43.9091 112.396 43.9091H106.032V41.3636H112.305C113.548 41.3636 114.548 41.1818 115.305 40.8182C116.07 40.4545 116.623 39.9394 116.964 39.2727C117.313 38.5985 117.487 37.7955 117.487 36.8636C117.487 35.9318 117.313 35.1174 116.964 34.4205C116.616 33.7235 116.059 33.1856 115.294 32.8068C114.529 32.4205 113.517 32.2273 112.26 32.2273H107.305V53H104.487ZM115.441 42.5455L121.169 53H117.896L112.26 42.5455H115.441Z" fill="currentColor"/>
<path d="M146.883 37H144.065C143.898 36.1894 143.606 35.4773 143.19 34.8636C142.781 34.25 142.281 33.7349 141.69 33.3182C141.106 32.8939 140.459 32.5758 139.747 32.3636C139.034 32.1515 138.292 32.0455 137.519 32.0455C136.11 32.0455 134.834 32.4015 133.69 33.1136C132.553 33.8258 131.648 34.875 130.974 36.2614C130.307 37.6477 129.974 39.3485 129.974 41.3636C129.974 43.3788 130.307 45.0795 130.974 46.4659C131.648 47.8523 132.553 48.9015 133.69 49.6136C134.834 50.3258 136.11 50.6818 137.519 50.6818C138.292 50.6818 139.034 50.5758 139.747 50.3636C140.459 50.1515 141.106 49.8371 141.69 49.4205C142.281 48.9962 142.781 48.4773 143.19 47.8636C143.606 47.2424 143.898 46.5303 144.065 45.7273H146.883C146.671 46.9167 146.284 47.9811 145.724 48.9205C145.163 49.8598 144.466 50.6591 143.633 51.3182C142.8 51.9697 141.864 52.4659 140.826 52.8068C139.796 53.1477 138.694 53.3182 137.519 53.3182C135.534 53.3182 133.769 52.8333 132.224 51.8636C130.678 50.8939 129.463 49.5152 128.576 47.7273C127.69 45.9394 127.247 43.8182 127.247 41.3636C127.247 38.9091 127.69 36.7879 128.576 35C129.463 33.2121 130.678 31.8333 132.224 30.8636C133.769 29.8939 135.534 29.4091 137.519 29.4091C138.694 29.4091 139.796 29.5795 140.826 29.9205C141.864 30.2614 142.8 30.7614 143.633 31.4205C144.466 32.072 145.163 32.8674 145.724 33.8068C146.284 34.7386 146.671 35.803 146.883 37Z" fill="currentColor"/>
<path d="M169.91 29.7273H172.728V45.1364C172.728 46.7273 172.353 48.1477 171.603 49.3977C170.86 50.6402 169.811 51.6212 168.455 52.3409C167.099 53.053 165.508 53.4091 163.682 53.4091C161.857 53.4091 160.266 53.053 158.91 52.3409C157.554 51.6212 156.501 50.6402 155.751 49.3977C155.008 48.1477 154.637 46.7273 154.637 45.1364V29.7273H157.455V44.9091C157.455 46.0455 157.705 47.0568 158.205 47.9432C158.705 48.822 159.417 49.5152 160.341 50.0227C161.273 50.5227 162.387 50.7727 163.682 50.7727C164.978 50.7727 166.091 50.5227 167.023 50.0227C167.955 49.5152 168.667 48.822 169.16 47.9432C169.66 47.0568 169.91 46.0455 169.91 44.9091V29.7273Z" fill="currentColor"/>
<path d="M181.556 53V29.7273H184.374V50.5H195.192V53H181.556Z" fill="currentColor"/>
<path d="M205.179 53H202.224L210.77 29.7273H213.679L222.224 53H219.27L212.315 33.4091H212.134L205.179 53ZM206.27 43.9091H218.179V46.4091H206.27V43.9091Z" fill="currentColor"/>
<path d="M229.049 53V29.7273H236.913C238.731 29.7273 240.224 30.0379 241.39 30.6591C242.557 31.2727 243.421 32.1174 243.981 33.1932C244.542 34.2689 244.822 35.4924 244.822 36.8636C244.822 38.2348 244.542 39.4508 243.981 40.5114C243.421 41.572 242.561 42.4053 241.402 43.0114C240.243 43.6098 238.762 43.9091 236.959 43.9091H230.595V41.3636H236.868C238.11 41.3636 239.11 41.1818 239.868 40.8182C240.633 40.4545 241.186 39.9394 241.527 39.2727C241.875 38.5985 242.049 37.7955 242.049 36.8636C242.049 35.9318 241.875 35.1174 241.527 34.4205C241.178 33.7235 240.621 33.1856 239.856 32.8068C239.091 32.4205 238.08 32.2273 236.822 32.2273H231.868V53H229.049ZM240.004 42.5455L245.731 53H242.459L236.822 42.5455H240.004Z" fill="currentColor"/>
</svg>
