<svg width="40" height="41" viewBox="0 0 40 41" fill="none" xmlns="http://www.w3.org/2000/svg">
<path d="M17.05 25.05L12.15 20.15C11.85 19.85 11.4833 19.7 11.05 19.7C10.6167 19.7 10.2333 19.8667 9.9 20.2C9.6 20.5 9.45 20.8667 9.45 21.3C9.45 21.7333 9.6 22.1 9.9 22.4L16 28.55C16.3 28.85 16.65 29 17.05 29C17.45 29 17.8 28.85 18.1 28.55L30.05 16.6C30.3833 16.2667 30.55 15.8833 30.55 15.45C30.55 15.0167 30.3833 14.6333 30.05 14.3C29.7167 14 29.325 13.8583 28.875 13.875C28.425 13.8917 28.05 14.05 27.75 14.35L17.05 25.05ZM20 40.5C17.2667 40.5 14.6833 39.975 12.25 38.925C9.81667 37.875 7.69167 36.4417 5.875 34.625C4.05833 32.8083 2.625 30.6833 1.575 28.25C0.525 25.8167 0 23.2333 0 20.5C0 17.7333 0.525 15.1333 1.575 12.7C2.625 10.2667 4.05833 8.15 5.875 6.35C7.69167 4.55 9.81667 3.125 12.25 2.075C14.6833 1.025 17.2667 0.5 20 0.5C22.7667 0.5 25.3667 1.025 27.8 2.075C30.2333 3.125 32.35 4.55 34.15 6.35C35.95 8.15 37.375 10.2667 38.425 12.7C39.475 15.1333 40 17.7333 40 20.5C40 23.2333 39.475 25.8167 38.425 28.25C37.375 30.6833 35.95 32.8083 34.15 34.625C32.35 36.4417 30.2333 37.875 27.8 38.925C25.3667 39.975 22.7667 40.5 20 40.5ZM20 37.5C24.7333 37.5 28.75 35.8417 32.05 32.525C35.35 29.2083 37 25.2 37 20.5C37 15.7667 35.35 11.75 32.05 8.45C28.75 5.15 24.7333 3.5 20 3.5C15.3 3.5 11.2917 5.15 7.975 8.45C4.65833 11.75 3 15.7667 3 20.5C3 25.2 4.65833 29.2083 7.975 32.525C11.2917 35.8417 15.3 37.5 20 37.5Z" fill="currentColor"/>
</svg>
