<svg width="230" height="66" viewBox="0 0 230 66" fill="none" xmlns="http://www.w3.org/2000/svg">
<path d="M50.2814 63.1224C60.2411 57.6989 67 47.1388 67 35C67 17.3269 52.6731 3 35 3C17.3269 3 3 17.3269 3 35C3 47.1388 9.75889 57.6989 19.7186 63.1224L18.286 65.7589C7.39254 59.827 0 48.2768 0 35C0 15.67 15.67 0 35 0C54.33 0 70 15.67 70 35C70 48.2768 62.6075 59.827 51.714 65.7589L50.2814 63.1224Z" fill="currentColor"/>
<path d="M35.8147 60.9922C45.0242 60.6953 53.7876 55.5012 58.2228 46.6919C64.6801 33.8663 59.5176 18.2345 46.692 11.7772C33.8664 5.31992 18.2345 10.4825 11.7772 23.3081C7.34203 32.1173 8.38865 42.2505 13.635 49.8254L11.1698 51.536C5.31811 43.0871 4.15073 31.7847 9.09766 21.959C16.3 7.65352 33.7356 1.8953 48.041 9.09765C62.3465 16.3 68.1047 33.7355 60.9024 48.041C55.9554 57.8667 46.1809 63.6602 35.9088 63.9913L35.8147 60.9922Z" fill="currentColor"/>
<path d="M51.6977 25.9267C48.4775 20.0131 42.2074 16 35 16C24.5066 16 16 24.5066 16 35C16 45.4934 24.5066 54 35 54C42.2074 54 48.4775 49.9869 51.6977 44.0733L54.3341 45.506C50.6055 52.3533 43.3454 57 35 57C22.8497 57 13 47.1503 13 35C13 22.8497 22.8497 13 35 13C43.3454 13 50.6055 17.6467 54.3342 24.4941L51.6977 25.9267Z" fill="currentColor"/>
<path d="M79.6364 22.7273V46H76.8182V22.7273H79.6364Z" fill="currentColor"/>
<path d="M88.4869 46V22.7273H96.3506C98.1688 22.7273 99.6612 23.0379 100.828 23.6591C101.995 24.2727 102.858 25.1174 103.419 26.1932C103.979 27.2689 104.26 28.4924 104.26 29.8636C104.26 31.2348 103.979 32.4508 103.419 33.5114C102.858 34.572 101.998 35.4053 100.839 36.0114C99.6801 36.6098 98.1991 36.9091 96.396 36.9091H90.0324V34.3636H96.3051C97.5475 34.3636 98.5475 34.1818 99.3051 33.8182C100.07 33.4545 100.623 32.9394 100.964 32.2727C101.313 31.5985 101.487 30.7955 101.487 29.8636C101.487 28.9318 101.313 28.1174 100.964 27.4205C100.616 26.7235 100.059 26.1856 99.2937 25.8068C98.5286 25.4205 97.5172 25.2273 96.2597 25.2273H91.3051V46H88.4869ZM99.4415 35.5455L105.169 46H101.896L96.2597 35.5455H99.4415Z" fill="currentColor"/>
<path d="M130.883 30H128.065C127.898 29.1894 127.606 28.4773 127.19 27.8636C126.781 27.25 126.281 26.7348 125.69 26.3182C125.106 25.8939 124.459 25.5758 123.747 25.3636C123.034 25.1515 122.292 25.0455 121.519 25.0455C120.11 25.0455 118.834 25.4015 117.69 26.1136C116.553 26.8258 115.648 27.875 114.974 29.2614C114.307 30.6477 113.974 32.3485 113.974 34.3636C113.974 36.3788 114.307 38.0795 114.974 39.4659C115.648 40.8523 116.553 41.9015 117.69 42.6136C118.834 43.3258 120.11 43.6818 121.519 43.6818C122.292 43.6818 123.034 43.5758 123.747 43.3636C124.459 43.1515 125.106 42.8371 125.69 42.4205C126.281 41.9962 126.781 41.4773 127.19 40.8636C127.606 40.2424 127.898 39.5303 128.065 38.7273H130.883C130.671 39.9167 130.284 40.9811 129.724 41.9205C129.163 42.8598 128.466 43.6591 127.633 44.3182C126.8 44.9697 125.864 45.4659 124.826 45.8068C123.796 46.1477 122.694 46.3182 121.519 46.3182C119.534 46.3182 117.769 45.8333 116.224 44.8636C114.678 43.8939 113.463 42.5152 112.576 40.7273C111.69 38.9394 111.247 36.8182 111.247 34.3636C111.247 31.9091 111.69 29.7879 112.576 28C113.463 26.2121 114.678 24.8333 116.224 23.8636C117.769 22.8939 119.534 22.4091 121.519 22.4091C122.694 22.4091 123.796 22.5795 124.826 22.9205C125.864 23.2614 126.8 23.7614 127.633 24.4205C128.466 25.072 129.163 25.8674 129.724 26.8068C130.284 27.7386 130.671 28.803 130.883 30Z" fill="currentColor"/>
<path d="M153.91 22.7273H156.728V38.1364C156.728 39.7273 156.353 41.1477 155.603 42.3977C154.86 43.6402 153.811 44.6212 152.455 45.3409C151.099 46.053 149.508 46.4091 147.682 46.4091C145.857 46.4091 144.266 46.053 142.91 45.3409C141.554 44.6212 140.501 43.6402 139.751 42.3977C139.008 41.1477 138.637 39.7273 138.637 38.1364V22.7273H141.455V37.9091C141.455 39.0455 141.705 40.0568 142.205 40.9432C142.705 41.822 143.417 42.5152 144.341 43.0227C145.273 43.5227 146.387 43.7727 147.682 43.7727C148.978 43.7727 150.091 43.5227 151.023 43.0227C151.955 42.5152 152.667 41.822 153.16 40.9432C153.66 40.0568 153.91 39.0455 153.91 37.9091V22.7273Z" fill="currentColor"/>
<path d="M165.556 46V22.7273H168.374V43.5H179.192V46H165.556Z" fill="currentColor"/>
<path d="M189.179 46H186.224L194.77 22.7273H197.679L206.224 46H203.27L196.315 26.4091H196.134L189.179 46ZM190.27 36.9091H202.179V39.4091H190.27V36.9091Z" fill="currentColor"/>
<path d="M213.049 46V22.7273H220.913C222.731 22.7273 224.224 23.0379 225.39 23.6591C226.557 24.2727 227.421 25.1174 227.981 26.1932C228.542 27.2689 228.822 28.4924 228.822 29.8636C228.822 31.2348 228.542 32.4508 227.981 33.5114C227.421 34.572 226.561 35.4053 225.402 36.0114C224.243 36.6098 222.762 36.9091 220.959 36.9091H214.595V34.3636H220.868C222.11 34.3636 223.11 34.1818 223.868 33.8182C224.633 33.4545 225.186 32.9394 225.527 32.2727C225.875 31.5985 226.049 30.7955 226.049 29.8636C226.049 28.9318 225.875 28.1174 225.527 27.4205C225.178 26.7235 224.621 26.1856 223.856 25.8068C223.091 25.4205 222.08 25.2273 220.822 25.2273H215.868V46H213.049ZM224.004 35.5455L229.731 46H226.459L220.822 35.5455H224.004Z" fill="currentColor"/>
</svg>
