<svg viewBox="0 0 24 24" stroke="none" height="24" width="24" preserveAspectRatio="xMidYMid meet" class="" version="1.1" x="0px" y="0px" enable-background="new 0 0 24 24" xml:space="preserve"><path fill="currentColor" stroke="none" d="M5.5,3.8V3.6c0-0.3-0.2-0.5-0.5-0.5H4.5C4.2,3.1,4,3.3,4,3.6V21c0,0.3,0.2,0.5,0.5,0.5H5 c0.3,0,0.5-0.2,0.5-0.5v-6.2c5,1.8,9.3-2.7,14.5,0.6c0-5.6,0-5.6,0-11.3C14.9,1,10.3,5.6,5.5,3.8z M15.8,12.6 c-1.4,0-2.8,0.3-4.1,0.6c-1.2,0.3-2.4,0.5-3.5,0.5c-0.9,0-1.8-0.2-2.6-0.5V5.4c0.8,0.2,1.5,0.3,2.3,0.3c1.5,0,2.9-0.4,4.3-0.7 c1.3-0.3,2.5-0.6,3.8-0.6c0.9,0,1.7,0.2,2.5,0.5V13C17.6,12.8,16.7,12.6,15.8,12.6z"></path></svg>