<svg viewBox="0 0 24 24" stroke="none" height="24" width="24" preserveAspectRatio="xMidYMid meet" class="" version="1.1" x="0px" y="0px" enable-background="new 0 0 24 24" xml:space="preserve"><path fill="currentColor" stroke="none" d="M7.4,11.4L7.4,11.4c-0.4,0-0.8,0.4-0.8,0.8V14c0,0.4,0.4,0.8,0.8,0.8l0,0c0.4,0,0.8-0.4,0.6-0.8v-1.8 C8,11.6,7.8,11.4,7.4,11.4z"></path><path fill="currentColor" stroke="none" d="M4.6,10.4c-0.4,0-0.8,0.4-0.8,0.8V15c0,0.4,0.4,0.8,0.8,0.8s0.8-0.4,0.8-0.8v-3.8C5.4,10.6,5,10.4,4.6,10.4z "></path><path fill="currentColor" stroke="none" d="M23,7.2c-0.6-0.6-1.6-0.8-2.8-0.6c-0.2,0-0.4,0.2-0.6,0.2V4.2C19.6,3.6,19,3,18.4,3h-17 C0.8,3,0.2,3.6,0.2,4.2v7.4c0,5.4,3.2,9.6,8.4,9.6h2.2c4.2,0,7-2.6,8-6H19h0.2c2.2-0.4,4-2.6,4.4-4.8C24,9,23.8,8,23,7.2z M18.2,4.4 v3H1.6v-3H18.2z M11,19.8H8.8c-5.2,0-7-4.4-7-8.2V8.8h16.6v2.8C18.2,15.6,16,19.8,11,19.8z M19.4,13.6c0.2-0.6,0.2-1.4,0.2-2V8.4 C20,8.2,20.2,8,20.6,8c0.6-0.2,1.2,0,1.4,0.4c0.4,0.4,0.6,1,0.4,1.8C22.2,11.6,20.8,13.2,19.4,13.6z"></path></svg>