<svg width="24" height="24" viewBox="0 0 24 24" fill="none" xmlns="http://www.w3.org/2000/svg">
<g id="outlined/group">
<path id="Vector" d="M1.7981 18.4029V17.0837C1.7981 16.5683 1.93111 16.1083 2.19715 15.7039C2.46316 15.2994 2.81843 14.9847 3.26295 14.7598C4.2133 14.2949 5.16891 13.9366 6.1298 13.6847C7.0907 13.4327 8.14679 13.3068 9.29807 13.3068C10.4494 13.3068 11.5054 13.4327 12.4663 13.6847C13.4272 13.9366 14.3828 14.2949 15.3332 14.7598C15.7777 14.9847 16.133 15.2994 16.399 15.7039C16.665 16.1083 16.798 16.5683 16.798 17.0837V18.4029C16.798 18.6589 16.7114 18.8736 16.5382 19.0469C16.3649 19.2201 16.1503 19.3067 15.8942 19.3067H2.70195C2.44586 19.3067 2.2312 19.2201 2.05795 19.0469C1.88471 18.8736 1.7981 18.6589 1.7981 18.4029ZM18.4096 19.3067C18.5323 19.2021 18.6277 19.0713 18.6958 18.9144C18.7639 18.7574 18.798 18.5818 18.798 18.3875V16.9606C18.798 16.3042 18.6373 15.6786 18.3159 15.0839C17.9944 14.4891 17.5385 13.9788 16.9481 13.5529C17.6186 13.6529 18.2551 13.8077 18.8576 14.0174C19.4602 14.227 20.0352 14.4747 20.5826 14.7606C21.0993 15.0362 21.4983 15.3611 21.7797 15.7352C22.0611 16.1093 22.2018 16.5178 22.2018 16.9606V18.4029C22.2018 18.6589 22.1152 18.8736 21.942 19.0469C21.7687 19.2201 21.5541 19.3067 21.298 19.3067H18.4096ZM9.29807 11.6913C8.33559 11.6913 7.51164 11.3486 6.82622 10.6632C6.1408 9.97782 5.7981 9.15387 5.7981 8.19138C5.7981 7.22888 6.1408 6.40493 6.82622 5.71953C7.51164 5.03411 8.33559 4.69141 9.29807 4.69141C10.2606 4.69141 11.0845 5.03411 11.7699 5.71953C12.4553 6.40493 12.798 7.22888 12.798 8.19138C12.798 9.15387 12.4553 9.97782 11.7699 10.6632C11.0845 11.3486 10.2606 11.6913 9.29807 11.6913ZM17.9326 8.19138C17.9326 9.15387 17.5899 9.97782 16.9045 10.6632C16.2191 11.3486 15.3951 11.6913 14.4326 11.6913C14.3198 11.6913 14.1762 11.6785 14.0019 11.6529C13.8275 11.6272 13.6839 11.599 13.5711 11.5683C13.9655 11.0942 14.2686 10.5682 14.4803 9.99036C14.6921 9.41252 14.798 8.81247 14.798 8.19018C14.798 7.56792 14.69 6.97024 14.474 6.39716C14.258 5.82409 13.957 5.29653 13.5711 4.81448C13.7147 4.7632 13.8583 4.72987 14.0019 4.71448C14.1455 4.6991 14.289 4.69141 14.4326 4.69141C15.3951 4.69141 16.2191 5.03411 16.9045 5.71953C17.5899 6.40493 17.9326 7.22888 17.9326 8.19138ZM3.29807 17.8067H15.2981V17.0837C15.2981 16.8747 15.2458 16.6888 15.1413 16.526C15.0368 16.3631 14.8711 16.2208 14.6442 16.099C13.8211 15.6747 12.9737 15.3532 12.1019 15.1346C11.2301 14.916 10.2955 14.8067 9.29807 14.8067C8.30064 14.8067 7.36602 14.916 6.49422 15.1346C5.62244 15.3532 4.775 15.6747 3.95192 16.099C3.725 16.2208 3.5593 16.3631 3.4548 16.526C3.35031 16.6888 3.29807 16.8747 3.29807 17.0837V17.8067ZM9.29807 10.1914C9.84807 10.1914 10.3189 9.99555 10.7106 9.60388C11.1022 9.21222 11.2981 8.74138 11.2981 8.19138C11.2981 7.64138 11.1022 7.17055 10.7106 6.77888C10.3189 6.38722 9.84807 6.19138 9.29807 6.19138C8.74807 6.19138 8.27724 6.38722 7.88557 6.77888C7.4939 7.17055 7.29807 7.64138 7.29807 8.19138C7.29807 8.74138 7.4939 9.21222 7.88557 9.60388C8.27724 9.99555 8.74807 10.1914 9.29807 10.1914Z" fill="currentColor"/>
</g>
</svg>
