<svg width="16" height="16" viewBox="0 0 16 16" fill="none" xmlns="http://www.w3.org/2000/svg">
<path stroke="none" d="M1.48907 7.26667C1.07413 7.26667 0.722133 7.12213 0.433067 6.83307C0.144355 6.54436 0 6.19253 0 5.7776V1.48907C0 1.07413 0.144355 0.722133 0.433067 0.433067C0.722133 0.144355 1.07413 0 1.48907 0H5.7776C6.19253 0 6.54436 0.144355 6.83307 0.433067C7.12213 0.722133 7.26667 1.07413 7.26667 1.48907V5.7776C7.26667 6.19253 7.12213 6.54436 6.83307 6.83307C6.54436 7.12213 6.19253 7.26667 5.7776 7.26667H1.48907ZM1.48907 16C1.07413 16 0.722133 15.8556 0.433067 15.5669C0.144355 15.2779 0 14.9259 0 14.5109V10.2224C0 9.80747 0.144355 9.45564 0.433067 9.16693C0.722133 8.87787 1.07413 8.73333 1.48907 8.73333H5.7776C6.19253 8.73333 6.54436 8.87787 6.83307 9.16693C7.12213 9.45564 7.26667 9.80747 7.26667 10.2224V14.5109C7.26667 14.9259 7.12213 15.2779 6.83307 15.5669C6.54436 15.8556 6.19253 16 5.7776 16H1.48907ZM10.2224 7.26667C9.80747 7.26667 9.45564 7.12213 9.16693 6.83307C8.87787 6.54436 8.73333 6.19253 8.73333 5.7776V1.48907C8.73333 1.07413 8.87787 0.722133 9.16693 0.433067C9.45564 0.144355 9.80747 0 10.2224 0H14.5109C14.9259 0 15.2779 0.144355 15.5669 0.433067C15.8556 0.722133 16 1.07413 16 1.48907V5.7776C16 6.19253 15.8556 6.54436 15.5669 6.83307C15.2779 7.12213 14.9259 7.26667 14.5109 7.26667H10.2224ZM10.2224 16C9.80747 16 9.45564 15.8556 9.16693 15.5669C8.87787 15.2779 8.73333 14.9259 8.73333 14.5109V10.2224C8.73333 9.80747 8.87787 9.45564 9.16693 9.16693C9.45564 8.87787 9.80747 8.73333 10.2224 8.73333H14.5109C14.9259 8.73333 15.2779 8.87787 15.5669 9.16693C15.8556 9.45564 16 9.80747 16 10.2224V14.5109C16 14.9259 15.8556 15.2779 15.5669 15.5669C15.2779 15.8556 14.9259 16 14.5109 16H10.2224ZM1.48907 5.7776H5.7776V1.48907H1.48907V5.7776ZM10.2224 5.7776H14.5109V1.48907H10.2224V5.7776ZM10.2224 14.5109H14.5109V10.2224H10.2224V14.5109ZM1.48907 14.5109H5.7776V10.2224H1.48907V14.5109Z" fill="currentColor"/>
</svg>
