<svg width="16" height="16" viewBox="0 0 16 16" fill="none" xmlns="http://www.w3.org/2000/svg">
<path stroke="none" d="M1.13208 7.43396V11.7736V1.96226V7.43396ZM9.0283 14.0377C9.28616 14.0377 9.50629 13.9434 9.68868 13.7547C9.87107 13.566 9.96226 13.3428 9.96226 13.0849C9.96226 12.827 9.87186 12.6069 9.69104 12.4245C9.51022 12.2421 9.28616 12.1509 9.01887 12.1509C8.7673 12.1509 8.54717 12.2414 8.35849 12.4222C8.16981 12.603 8.07547 12.827 8.07547 13.0943C8.07547 13.3459 8.16981 13.566 8.35849 13.7547C8.54717 13.9434 8.77044 14.0377 9.0283 14.0377ZM13.934 6.11321C14.1918 6.11321 14.412 6.01887 14.5943 5.83019C14.7767 5.64151 14.8679 5.41824 14.8679 5.16038C14.8679 4.90252 14.7775 4.68239 14.5967 4.5C14.4159 4.31761 14.1918 4.22642 13.9245 4.22642C13.673 4.22642 13.4528 4.31682 13.2642 4.49764C13.0755 4.67846 12.9811 4.90252 12.9811 5.16981C12.9811 5.42138 13.0755 5.64151 13.2642 5.83019C13.4528 6.01887 13.6761 6.11321 13.934 6.11321ZM6.37736 5.73585C6.53774 5.73585 6.67217 5.68129 6.78066 5.57217C6.88915 5.46304 6.9434 5.32782 6.9434 5.16651C6.9434 5.00519 6.88915 4.87107 6.78066 4.76415C6.67217 4.65723 6.53774 4.60377 6.37736 4.60377H3.73585C3.57547 4.60377 3.44104 4.65833 3.33255 4.76745C3.22406 4.87659 3.16981 5.01181 3.16981 5.17311C3.16981 5.33443 3.22406 5.46855 3.33255 5.57547C3.44104 5.68239 3.57547 5.73585 3.73585 5.73585H6.37736ZM6.37736 9.13208C6.53774 9.13208 6.67217 9.07752 6.78066 8.9684C6.88915 8.85926 6.9434 8.72404 6.9434 8.56274C6.9434 8.40142 6.88915 8.2673 6.78066 8.16038C6.67217 8.05346 6.53774 8 6.37736 8H3.73585C3.57547 8 3.44104 8.05456 3.33255 8.16368C3.22406 8.27281 3.16981 8.40803 3.16981 8.56934C3.16981 8.73066 3.22406 8.86478 3.33255 8.9717C3.44104 9.07862 3.57547 9.13208 3.73585 9.13208H6.37736ZM1.13208 12.9057C0.830189 12.9057 0.566038 12.7925 0.339623 12.566C0.113208 12.3396 0 12.0755 0 11.7736V1.96226C0 1.66038 0.113208 1.39623 0.339623 1.16981C0.566038 0.943396 0.830189 0.830189 1.13208 0.830189H14.2642C14.566 0.830189 14.8302 0.943396 15.0566 1.16981C15.283 1.39623 15.3962 1.66038 15.3962 1.96226H1.13208V11.7736H5.81132V12.9057H1.13208ZM9.01664 15.1698C8.43951 15.1698 7.94969 14.968 7.54717 14.5645C7.14465 14.1609 6.9434 13.6709 6.9434 13.0943C6.9434 12.6164 7.08491 12.195 7.36792 11.8302C7.65094 11.4654 8.01258 11.2201 8.45283 11.0943V9.13208C8.45283 8.9717 8.50708 8.83726 8.61557 8.72877C8.72406 8.62028 8.85849 8.56604 9.01887 8.56604H13.3585V7.16981C12.9182 7.04403 12.5566 6.79874 12.2736 6.43396C11.9906 6.06918 11.8491 5.6478 11.8491 5.16981C11.8491 4.5933 12.0511 4.10325 12.4551 3.69968C12.859 3.29612 13.3496 3.09434 13.9268 3.09434C14.5039 3.09434 14.9937 3.29612 15.3962 3.69968C15.7987 4.10325 16 4.5933 16 5.16981C16 5.6478 15.8585 6.06918 15.5755 6.43396C15.2925 6.79874 14.9308 7.04403 14.4906 7.16981V9.13208C14.4906 9.29245 14.4363 9.42689 14.3278 9.53538C14.2193 9.64387 14.0849 9.69811 13.9245 9.69811H9.58491V11.0943C10.0252 11.2201 10.3868 11.4654 10.6698 11.8302C10.9528 12.195 11.0943 12.6164 11.0943 13.0943C11.0943 13.6709 10.8923 14.1609 10.4883 14.5645C10.0844 14.968 9.59379 15.1698 9.01664 15.1698Z" fill="currentColor"/>
</svg>
